<svg width="211" height="211" viewBox="0 0 211 211" fill="none" xmlns="http://www.w3.org/2000/svg">
<path d="M75.0312 59.6724C82.137 72.1749 99.8536 74.4044 109.904 64.2749L110.377 63.7827L110.379 63.7808C117.129 56.4372 118.454 46.2537 113.71 37.4048L113.709 37.4058C113.081 36.198 111.804 34.4904 110.6 33.0952C109.995 32.3941 109.398 31.7604 108.9 31.2983C108.652 31.0683 108.421 30.8731 108.219 30.7329C108.118 30.663 108.016 30.6002 107.918 30.5542C107.883 30.5379 107.842 30.5238 107.799 30.5093C107.758 30.4014 107.71 30.2312 107.659 30.0034C107.557 29.5421 107.459 28.8984 107.393 28.1938C106.792 21.4137 101.396 15.9614 94.7354 15.4526H94.7295C93.9994 15.407 93.19 15.3957 92.4639 15.4243C91.7553 15.4522 91.0898 15.5198 90.6562 15.645C84.4845 17.2571 80.3206 22.2886 79.9971 28.4341V28.4351C79.9293 29.7687 79.8622 30.4787 79.6514 31.061C79.4455 31.6295 79.092 32.1052 78.3555 32.9312C71.4753 40.4952 70.1436 51.0846 75.0312 59.6724ZM85.9248 28.0034V28.0024C86.0078 27.1526 86.3549 26.1412 86.8525 25.2163C87.2892 24.4046 87.8226 23.695 88.3545 23.2329L88.583 23.0503L88.5869 23.0474C91.375 20.9455 94.4792 20.6913 97.5215 22.2339L97.5234 22.2349C98.328 22.6372 99.2654 23.5899 100.033 24.7251C100.801 25.8599 101.34 27.0913 101.421 27.9995L101.422 28.0034L101.512 28.897H85.835L85.9248 28.0034ZM87.7207 44.2261C86.2602 44.3569 84.4575 44.259 82.8584 44.0054C82.0601 43.8787 81.32 43.7152 80.7061 43.5249C80.0833 43.3319 79.6228 43.1213 79.3555 42.9185L79.3535 42.9175C79.1697 42.7796 79.0827 42.7024 79.0361 42.6401C79.0084 42.6031 78.9965 42.5772 79.001 42.5122C79.0073 42.4203 79.047 42.2699 79.1582 42.0054C79.2666 41.7477 79.4273 41.4165 79.6504 40.9702L79.8809 40.5659C80.4132 39.6897 81.3508 38.4488 82.2656 37.4302L82.7197 36.9429V36.9419L84.7051 34.8716H92.9111C95.734 34.8716 97.8194 34.9052 99.1963 34.9829C99.8875 35.0219 100.385 35.0712 100.703 35.1294C100.748 35.1375 100.786 35.1481 100.82 35.1558C100.814 35.1728 100.809 35.1917 100.801 35.2104C100.737 35.3618 100.64 35.5508 100.512 35.771C100.255 36.2104 99.8907 36.7472 99.4678 37.314C98.6199 38.45 97.5623 39.6705 96.7158 40.4302V40.4312C94.3633 42.4766 90.9522 43.9209 87.7207 44.2271V44.2261ZM94.3457 64.7515C92.5492 64.7515 91.5013 64.7166 90.5723 64.5298C89.6511 64.3445 88.8267 64.0053 87.4873 63.3579L87.4834 63.356C83.9352 61.6914 81.0492 58.8453 79.4785 55.5298L79.4775 55.5269C78.8943 54.3171 78.3871 52.5187 78.1221 51.0171C77.9896 50.2664 77.922 49.6126 77.9297 49.1577C77.9324 48.9966 77.9451 48.8763 77.9609 48.7925C77.988 48.7979 78.0183 48.8029 78.0508 48.8101C78.2027 48.8434 78.4011 48.8927 78.6338 48.9536C79.0984 49.0753 79.6871 49.2421 80.2891 49.4204C81.9127 49.9075 84.0883 50.1212 86.2861 50.0815C88.486 50.0418 90.7446 49.7479 92.5391 49.1958C97.8834 47.5514 102.22 44.1232 105.316 39.0688C105.669 38.4963 106.031 37.969 106.319 37.5884C106.432 37.439 106.533 37.3172 106.613 37.2241C106.665 37.2759 106.726 37.339 106.793 37.4155C107.02 37.6743 107.302 38.0411 107.587 38.4575L107.588 38.4595C109.639 41.4273 110.473 44.3452 110.473 48.5786V48.5845C110.495 50.4265 110.471 51.4601 110.29 52.3638C110.111 53.2601 109.774 54.0481 109.124 55.3921V55.3931C107.418 58.8919 104.261 61.961 100.762 63.5796L100.757 63.5815C99.6976 64.0891 98.9382 64.3751 98.0361 64.5396C97.1238 64.7059 96.0476 64.7515 94.3457 64.7515Z" fill="black" stroke="black" stroke-width="0.820611"/>
<mask id="path-2-outside-1_735_733" maskUnits="userSpaceOnUse" x="38.0283" y="39.9084" width="135" height="156" fill="black">
<rect fill="white" x="38.0283" y="39.9084" width="135" height="156"/>
<path d="M143.422 41.0497C141.809 41.6771 140.195 43.1561 139.389 44.7695C138.537 46.383 138.492 47.4586 138.492 59.4249V72.2875L136.7 75.2903L134.907 78.2931L130.335 78.069C127.781 77.9794 121.775 77.7553 116.98 77.576L108.24 77.2175L106.134 75.604C102.907 73.1391 101.428 72.7805 94.1228 72.7805C88.4758 72.7805 87.3554 72.915 85.5627 73.7217C81.4843 75.604 78.6608 78.9205 77.3162 83.3575C76.7784 85.1054 74.9409 88.0185 70.6832 93.8448L64.7225 101.912L53.4733 107.066C47.2436 109.889 41.7311 112.623 41.1933 113.116C40.6555 113.609 39.9384 114.64 39.6246 115.447C37.1597 121.273 42.7619 127.413 48.633 125.307C50.2016 124.724 66.3359 117.508 72.2967 114.685C74.0446 113.878 75.0305 112.847 77.63 109.262C79.4227 106.887 80.9913 104.96 81.1705 105.049C81.305 105.184 81.8876 106.932 82.4703 109.038L83.4562 112.847L77.63 123.738C74.4031 129.744 70.9521 136.153 69.9213 137.99C68.8905 139.828 67.3667 142.83 66.4704 144.623C64.5432 148.567 64.6777 150.225 67.053 152.287C68.5768 153.676 68.6664 153.676 73.5067 153.676C77.137 153.676 78.4367 153.811 78.4367 154.214C78.4815 158.024 82.1117 193.833 82.5151 194.281C82.9184 194.774 85.2041 194.908 94.1676 194.908C103.669 194.908 105.372 194.819 105.955 194.191C106.358 193.833 106.672 193.34 106.672 193.116C106.672 192.264 109.809 157.351 110.033 155.603L110.302 153.766L115.456 153.587L120.655 153.452L121.955 151.973C124.285 149.374 123.927 147.76 119.086 138.797C116.756 134.539 113.932 129.206 112.722 127.01C111.557 124.769 109.406 120.825 107.971 118.181C106.492 115.537 105.327 113.027 105.327 112.579C105.372 111.593 110.526 92.7692 110.885 92.4106C111.019 92.2762 117.787 92.4106 125.854 92.6795C139.209 93.2174 140.733 93.1725 141.988 92.5451C143.87 91.5591 144.901 90.4387 147.008 86.8533L148.8 83.8057L157.943 83.6712C168.117 83.5368 168.43 83.4471 170.671 80.1754C171.657 78.6965 171.657 78.562 171.657 62.2484C171.657 45.9348 171.657 45.8004 170.671 44.3214C170.089 43.5146 169.058 42.3942 168.386 41.9012C167.175 41.0049 166.503 40.9601 155.613 40.8704C149.293 40.8256 143.781 40.9152 143.422 41.0497ZM165.921 46.4278C166.682 47.1001 166.727 48.1757 166.727 62.1588C166.727 75.5144 166.638 77.2623 165.965 78.0242C165.338 78.7413 164.442 78.8309 156.912 78.8309L148.576 78.7861L146.022 75.2903L143.422 71.7945V59.6938C143.422 49.5202 143.512 47.5034 144.139 46.6519C144.812 45.6659 144.991 45.6659 154.94 45.6659C163.769 45.6659 165.204 45.7555 165.921 46.4278ZM99.725 77.9794C100.935 78.2931 102.593 79.2343 103.848 80.3099L105.91 82.1474L112.901 82.4611C116.756 82.6404 123.882 82.9093 128.722 83.0886L137.596 83.4023L139.433 80.3995C140.464 78.7861 141.45 77.6208 141.629 77.8001C141.764 77.9794 142.436 78.8757 143.108 79.8169L144.319 81.4303L142.526 84.4779C141.54 86.1362 140.464 87.66 140.15 87.8392C139.837 88.0185 132.531 87.9289 123.927 87.5703C114.111 87.2118 107.971 87.1222 107.478 87.3911C107.075 87.6152 106.492 88.646 106.179 89.7216C105.91 90.7524 104.386 96.3546 102.817 102.136C101.249 107.918 99.9491 112.982 99.9491 113.34C99.9491 113.699 101.921 117.643 104.341 122.08C111.871 135.929 118.1 147.581 118.235 148.164C118.369 148.612 113.35 148.746 94.3917 148.746C76.5095 148.746 70.3695 148.612 70.3695 148.209C70.3695 147.94 73.8653 141.217 78.1678 133.329C82.4254 125.396 86.5935 117.688 87.4002 116.209L88.8344 113.43L86.6831 105.497C85.5179 101.15 84.263 97.2958 83.9492 96.9372C83.0081 95.996 81.3946 96.1753 80.3638 97.2958C79.826 97.8784 77.5403 100.926 75.2098 104.063L71.0418 109.8L58.7618 115.357C45.7198 121.228 45.0476 121.408 44.196 119.032C43.8823 118.136 43.9271 117.643 44.4649 117.06C44.8683 116.612 50.3361 113.968 56.5657 111.189C66.4256 106.752 68.0838 105.856 69.1146 104.467C77.137 93.6207 82.0221 86.5395 82.0221 85.6432C82.0221 83.0438 85.1145 79.2343 88.1173 78.1586C90.2237 77.3968 97.036 77.3071 99.725 77.9794ZM104.879 155.11C104.879 156.903 102.235 187.558 101.921 188.948C101.742 189.889 101.473 189.979 98.7839 189.979H95.8707L96.1396 187.827C96.2741 186.662 96.7671 182.494 97.2601 178.55C97.7531 174.606 98.1564 170.841 98.1564 170.169C98.1564 167.839 95.5122 166.673 94.0332 168.332C93.4057 169.049 92.4646 175.234 91.1649 187.155L90.8511 189.979H88.7895H86.6831L85.2041 173.262C84.3974 164.119 83.6355 155.917 83.5011 155.11L83.277 153.676H94.078H104.879V155.11Z"/>
</mask>
<path d="M143.422 41.0497C141.809 41.6771 140.195 43.1561 139.389 44.7695C138.537 46.383 138.492 47.4586 138.492 59.4249V72.2875L136.7 75.2903L134.907 78.2931L130.335 78.069C127.781 77.9794 121.775 77.7553 116.98 77.576L108.24 77.2175L106.134 75.604C102.907 73.1391 101.428 72.7805 94.1228 72.7805C88.4758 72.7805 87.3554 72.915 85.5627 73.7217C81.4843 75.604 78.6608 78.9205 77.3162 83.3575C76.7784 85.1054 74.9409 88.0185 70.6832 93.8448L64.7225 101.912L53.4733 107.066C47.2436 109.889 41.7311 112.623 41.1933 113.116C40.6555 113.609 39.9384 114.64 39.6246 115.447C37.1597 121.273 42.7619 127.413 48.633 125.307C50.2016 124.724 66.3359 117.508 72.2967 114.685C74.0446 113.878 75.0305 112.847 77.63 109.262C79.4227 106.887 80.9913 104.96 81.1705 105.049C81.305 105.184 81.8876 106.932 82.4703 109.038L83.4562 112.847L77.63 123.738C74.4031 129.744 70.9521 136.153 69.9213 137.99C68.8905 139.828 67.3667 142.83 66.4704 144.623C64.5432 148.567 64.6777 150.225 67.053 152.287C68.5768 153.676 68.6664 153.676 73.5067 153.676C77.137 153.676 78.4367 153.811 78.4367 154.214C78.4815 158.024 82.1117 193.833 82.5151 194.281C82.9184 194.774 85.2041 194.908 94.1676 194.908C103.669 194.908 105.372 194.819 105.955 194.191C106.358 193.833 106.672 193.34 106.672 193.116C106.672 192.264 109.809 157.351 110.033 155.603L110.302 153.766L115.456 153.587L120.655 153.452L121.955 151.973C124.285 149.374 123.927 147.76 119.086 138.797C116.756 134.539 113.932 129.206 112.722 127.01C111.557 124.769 109.406 120.825 107.971 118.181C106.492 115.537 105.327 113.027 105.327 112.579C105.372 111.593 110.526 92.7692 110.885 92.4106C111.019 92.2762 117.787 92.4106 125.854 92.6795C139.209 93.2174 140.733 93.1725 141.988 92.5451C143.87 91.5591 144.901 90.4387 147.008 86.8533L148.8 83.8057L157.943 83.6712C168.117 83.5368 168.43 83.4471 170.671 80.1754C171.657 78.6965 171.657 78.562 171.657 62.2484C171.657 45.9348 171.657 45.8004 170.671 44.3214C170.089 43.5146 169.058 42.3942 168.386 41.9012C167.175 41.0049 166.503 40.9601 155.613 40.8704C149.293 40.8256 143.781 40.9152 143.422 41.0497ZM165.921 46.4278C166.682 47.1001 166.727 48.1757 166.727 62.1588C166.727 75.5144 166.638 77.2623 165.965 78.0242C165.338 78.7413 164.442 78.8309 156.912 78.8309L148.576 78.7861L146.022 75.2903L143.422 71.7945V59.6938C143.422 49.5202 143.512 47.5034 144.139 46.6519C144.812 45.6659 144.991 45.6659 154.94 45.6659C163.769 45.6659 165.204 45.7555 165.921 46.4278ZM99.725 77.9794C100.935 78.2931 102.593 79.2343 103.848 80.3099L105.91 82.1474L112.901 82.4611C116.756 82.6404 123.882 82.9093 128.722 83.0886L137.596 83.4023L139.433 80.3995C140.464 78.7861 141.45 77.6208 141.629 77.8001C141.764 77.9794 142.436 78.8757 143.108 79.8169L144.319 81.4303L142.526 84.4779C141.54 86.1362 140.464 87.66 140.15 87.8392C139.837 88.0185 132.531 87.9289 123.927 87.5703C114.111 87.2118 107.971 87.1222 107.478 87.3911C107.075 87.6152 106.492 88.646 106.179 89.7216C105.91 90.7524 104.386 96.3546 102.817 102.136C101.249 107.918 99.9491 112.982 99.9491 113.34C99.9491 113.699 101.921 117.643 104.341 122.08C111.871 135.929 118.1 147.581 118.235 148.164C118.369 148.612 113.35 148.746 94.3917 148.746C76.5095 148.746 70.3695 148.612 70.3695 148.209C70.3695 147.94 73.8653 141.217 78.1678 133.329C82.4254 125.396 86.5935 117.688 87.4002 116.209L88.8344 113.43L86.6831 105.497C85.5179 101.15 84.263 97.2958 83.9492 96.9372C83.0081 95.996 81.3946 96.1753 80.3638 97.2958C79.826 97.8784 77.5403 100.926 75.2098 104.063L71.0418 109.8L58.7618 115.357C45.7198 121.228 45.0476 121.408 44.196 119.032C43.8823 118.136 43.9271 117.643 44.4649 117.06C44.8683 116.612 50.3361 113.968 56.5657 111.189C66.4256 106.752 68.0838 105.856 69.1146 104.467C77.137 93.6207 82.0221 86.5395 82.0221 85.6432C82.0221 83.0438 85.1145 79.2343 88.1173 78.1586C90.2237 77.3968 97.036 77.3071 99.725 77.9794ZM104.879 155.11C104.879 156.903 102.235 187.558 101.921 188.948C101.742 189.889 101.473 189.979 98.7839 189.979H95.8707L96.1396 187.827C96.2741 186.662 96.7671 182.494 97.2601 178.55C97.7531 174.606 98.1564 170.841 98.1564 170.169C98.1564 167.839 95.5122 166.673 94.0332 168.332C93.4057 169.049 92.4646 175.234 91.1649 187.155L90.8511 189.979H88.7895H86.6831L85.2041 173.262C84.3974 164.119 83.6355 155.917 83.5011 155.11L83.277 153.676H94.078H104.879V155.11Z" fill="black"/>
<path d="M143.422 41.0497C141.809 41.6771 140.195 43.1561 139.389 44.7695C138.537 46.383 138.492 47.4586 138.492 59.4249V72.2875L136.7 75.2903L134.907 78.2931L130.335 78.069C127.781 77.9794 121.775 77.7553 116.98 77.576L108.24 77.2175L106.134 75.604C102.907 73.1391 101.428 72.7805 94.1228 72.7805C88.4758 72.7805 87.3554 72.915 85.5627 73.7217C81.4843 75.604 78.6608 78.9205 77.3162 83.3575C76.7784 85.1054 74.9409 88.0185 70.6832 93.8448L64.7225 101.912L53.4733 107.066C47.2436 109.889 41.7311 112.623 41.1933 113.116C40.6555 113.609 39.9384 114.64 39.6246 115.447C37.1597 121.273 42.7619 127.413 48.633 125.307C50.2016 124.724 66.3359 117.508 72.2967 114.685C74.0446 113.878 75.0305 112.847 77.63 109.262C79.4227 106.887 80.9913 104.96 81.1705 105.049C81.305 105.184 81.8876 106.932 82.4703 109.038L83.4562 112.847L77.63 123.738C74.4031 129.744 70.9521 136.153 69.9213 137.99C68.8905 139.828 67.3667 142.83 66.4704 144.623C64.5432 148.567 64.6777 150.225 67.053 152.287C68.5768 153.676 68.6664 153.676 73.5067 153.676C77.137 153.676 78.4367 153.811 78.4367 154.214C78.4815 158.024 82.1117 193.833 82.5151 194.281C82.9184 194.774 85.2041 194.908 94.1676 194.908C103.669 194.908 105.372 194.819 105.955 194.191C106.358 193.833 106.672 193.34 106.672 193.116C106.672 192.264 109.809 157.351 110.033 155.603L110.302 153.766L115.456 153.587L120.655 153.452L121.955 151.973C124.285 149.374 123.927 147.76 119.086 138.797C116.756 134.539 113.932 129.206 112.722 127.01C111.557 124.769 109.406 120.825 107.971 118.181C106.492 115.537 105.327 113.027 105.327 112.579C105.372 111.593 110.526 92.7692 110.885 92.4106C111.019 92.2762 117.787 92.4106 125.854 92.6795C139.209 93.2174 140.733 93.1725 141.988 92.5451C143.87 91.5591 144.901 90.4387 147.008 86.8533L148.8 83.8057L157.943 83.6712C168.117 83.5368 168.43 83.4471 170.671 80.1754C171.657 78.6965 171.657 78.562 171.657 62.2484C171.657 45.9348 171.657 45.8004 170.671 44.3214C170.089 43.5146 169.058 42.3942 168.386 41.9012C167.175 41.0049 166.503 40.9601 155.613 40.8704C149.293 40.8256 143.781 40.9152 143.422 41.0497ZM165.921 46.4278C166.682 47.1001 166.727 48.1757 166.727 62.1588C166.727 75.5144 166.638 77.2623 165.965 78.0242C165.338 78.7413 164.442 78.8309 156.912 78.8309L148.576 78.7861L146.022 75.2903L143.422 71.7945V59.6938C143.422 49.5202 143.512 47.5034 144.139 46.6519C144.812 45.6659 144.991 45.6659 154.94 45.6659C163.769 45.6659 165.204 45.7555 165.921 46.4278ZM99.725 77.9794C100.935 78.2931 102.593 79.2343 103.848 80.3099L105.91 82.1474L112.901 82.4611C116.756 82.6404 123.882 82.9093 128.722 83.0886L137.596 83.4023L139.433 80.3995C140.464 78.7861 141.45 77.6208 141.629 77.8001C141.764 77.9794 142.436 78.8757 143.108 79.8169L144.319 81.4303L142.526 84.4779C141.54 86.1362 140.464 87.66 140.15 87.8392C139.837 88.0185 132.531 87.9289 123.927 87.5703C114.111 87.2118 107.971 87.1222 107.478 87.3911C107.075 87.6152 106.492 88.646 106.179 89.7216C105.91 90.7524 104.386 96.3546 102.817 102.136C101.249 107.918 99.9491 112.982 99.9491 113.34C99.9491 113.699 101.921 117.643 104.341 122.08C111.871 135.929 118.1 147.581 118.235 148.164C118.369 148.612 113.35 148.746 94.3917 148.746C76.5095 148.746 70.3695 148.612 70.3695 148.209C70.3695 147.94 73.8653 141.217 78.1678 133.329C82.4254 125.396 86.5935 117.688 87.4002 116.209L88.8344 113.43L86.6831 105.497C85.5179 101.15 84.263 97.2958 83.9492 96.9372C83.0081 95.996 81.3946 96.1753 80.3638 97.2958C79.826 97.8784 77.5403 100.926 75.2098 104.063L71.0418 109.8L58.7618 115.357C45.7198 121.228 45.0476 121.408 44.196 119.032C43.8823 118.136 43.9271 117.643 44.4649 117.06C44.8683 116.612 50.3361 113.968 56.5657 111.189C66.4256 106.752 68.0838 105.856 69.1146 104.467C77.137 93.6207 82.0221 86.5395 82.0221 85.6432C82.0221 83.0438 85.1145 79.2343 88.1173 78.1586C90.2237 77.3968 97.036 77.3071 99.725 77.9794ZM104.879 155.11C104.879 156.903 102.235 187.558 101.921 188.948C101.742 189.889 101.473 189.979 98.7839 189.979H95.8707L96.1396 187.827C96.2741 186.662 96.7671 182.494 97.2601 178.55C97.7531 174.606 98.1564 170.841 98.1564 170.169C98.1564 167.839 95.5122 166.673 94.0332 168.332C93.4057 169.049 92.4646 175.234 91.1649 187.155L90.8511 189.979H88.7895H86.6831L85.2041 173.262C84.3974 164.119 83.6355 155.917 83.5011 155.11L83.277 153.676H94.078H104.879V155.11Z" stroke="black" stroke-width="1.64122" mask="url(#path-2-outside-1_735_733)"/>
<path d="M94.2563 89.5491C97.6359 89.5491 99.4566 85.3978 96.9546 83.0999L96.9536 83.1008C95.4678 81.7164 92.9762 81.6379 91.5913 83.0227C90.9607 83.6533 90.5747 84.7074 90.5747 85.7776C90.5747 86.875 90.9294 87.8237 91.5864 88.5002C92.2447 89.1779 93.1742 89.549 94.2563 89.5491Z" fill="black" stroke="black" stroke-width="0.820611"/>
<path d="M92.7529 101.841C94.75 102.68 96.5713 101.955 97.4922 100.602C98.4121 99.2504 98.4073 97.3091 96.8809 95.8013C96.1212 95.0171 95.1937 94.5912 94.2539 94.5718C93.312 94.5524 92.3963 94.9419 91.6729 95.7144C89.7969 97.6898 90.3061 100.821 92.7529 101.841Z" fill="black" stroke="black" stroke-width="0.820611"/>
</svg>
