<svg width="211" height="211" viewBox="0 0 211 211" fill="none" xmlns="http://www.w3.org/2000/svg">
<path d="M125.533 39.3398C117.609 42.5943 115.628 52.3577 121.429 59.1498C124.259 62.4043 125.957 62.9703 131.334 62.9703L137.985 62.8288V68.9133C137.985 73.2998 136.004 79.1013 130.91 89.7138C123.41 105.279 122.561 109.807 126.099 116.457C129.636 123.532 132.325 121.268 139.258 105.279C142.796 97.3548 145.909 90.8458 146.475 90.8458C146.899 90.8458 150.154 97.4963 153.55 105.703C160.483 121.834 163.03 123.957 166.992 116.316C170.247 109.948 169.681 106.269 162.04 89.9968C156.946 79.2428 154.965 73.1583 154.965 68.9133V62.8288L161.615 62.9703C166.992 62.9703 168.69 62.4043 171.52 59.1498C178.878 50.6598 173.501 38.4907 162.323 38.4907C158.219 38.4907 155.814 39.4812 152.984 42.1698C149.729 45.5658 149.305 46.9808 149.305 56.3198C149.305 65.8003 149.022 66.7908 146.475 66.7908C143.928 66.7908 143.645 65.8003 143.645 57.0273C143.645 48.6787 143.079 46.5563 140.107 43.0188C136.004 38.0662 131.334 36.7927 125.533 39.3398ZM135.438 45.1413C138.551 47.9713 138.692 52.3577 135.579 55.7538C131.051 60.7063 123.552 57.4518 123.552 50.5182C123.552 43.7262 130.344 40.6133 135.438 45.1413ZM166.426 44.1507C168.266 45.1413 169.115 47.1222 169.115 50.5182C169.115 57.5933 162.04 60.8478 157.229 56.0368C154.257 53.2067 154.399 48.5373 157.37 45.2828C159.917 42.4528 162.464 42.0283 166.426 44.1507ZM149.729 74.4318C150.154 75.5638 149.588 77.2618 148.456 78.2523C146.758 79.6673 145.909 79.5258 144.069 77.8278C142.937 76.5543 142.371 74.8563 142.796 74.0073C144.211 71.7433 148.88 72.0263 149.729 74.4318ZM142.23 84.1953C142.23 85.4688 131.334 110.797 130.485 111.646C129.919 112.071 129.495 110.939 129.495 108.816C129.495 104.288 138.692 83.7708 140.673 83.7708C141.522 83.7708 142.23 84.0538 142.23 84.1953ZM158.219 94.3833C162.889 104.005 165.436 114.759 162.181 111.222C161.049 110.09 150.72 86.0348 150.72 84.4783C150.72 84.0538 151.286 83.7708 151.852 83.7708C152.559 83.7708 155.389 88.5818 158.219 94.3833Z" fill="black"/>
<path d="M89.5924 52.6407C78.6969 55.8952 70.0654 66.2247 70.0654 75.7052C70.0654 78.6767 69.0749 79.9502 66.2449 81.0822C52.6609 86.1762 45.4444 105.703 52.2364 118.863C53.9344 122.259 54.2174 124.098 53.0854 126.079C52.3779 127.636 51.6704 131.456 51.6704 134.711C51.6704 137.824 50.3969 142.918 48.8404 146.031C47.2839 149.144 45.5859 154.945 44.8784 159.049C44.0294 164.992 43.3219 166.69 41.0579 166.973C36.8129 167.822 35.1149 169.944 37.5204 171.501C38.7939 172.35 64.4054 172.916 99.2144 172.916C147.466 172.916 159.21 172.491 160.484 171.076C162.889 167.963 160.908 167.256 150.437 167.256C141.806 167.256 140.815 166.973 140.815 164.426C140.815 157.068 137.278 146.738 132.75 140.795C128.08 134.711 127.797 133.154 130.203 127.211C131.193 124.947 130.769 124.664 127.939 125.089C125.675 125.372 124.401 126.645 124.118 128.768C123.694 131.173 122.986 131.881 121.288 131.173C120.015 130.749 116.194 129.9 112.798 129.475C109.402 129.051 106.289 127.777 105.865 126.787C105.44 125.655 107.138 122.542 109.402 119.853C114.638 113.91 115.628 109.524 115.062 93.6757L114.638 81.6482L109.685 82.0727C106.997 82.2142 103.459 81.7897 101.761 80.7992C99.0729 79.3842 97.9409 80.0917 91.8564 86.7422C87.3284 91.5532 81.8099 95.5152 76.2914 98.0622L67.6599 102.024L70.0654 109.524C71.3389 113.627 74.1689 118.863 76.2914 120.985C81.3854 126.079 80.2534 128.485 72.3294 129.475C68.6504 130.041 63.9809 131.315 61.7169 132.447C56.4814 135.277 55.4909 134.003 58.1794 127.919C60.0189 123.391 60.0189 122.542 57.1889 116.74C51.3874 104.713 56.0569 91.9777 68.5089 86.1762C74.8764 83.0632 75.0179 82.7802 75.7254 75.7052C77.7064 56.4612 101.195 50.2352 111.525 66.2247C113.364 69.0547 116.477 71.3187 119.732 72.3092C122.42 73.1582 125.958 75.1392 127.373 76.6957C130.344 79.9502 133.74 80.3747 133.74 77.6862C133.74 75.1392 128.222 70.1867 122.986 67.9227C120.581 66.9322 116.76 63.9607 114.638 61.4137C108.27 53.7727 97.7994 50.0937 89.5924 52.6407ZM109.685 99.9017C109.685 110.656 109.261 112.354 106.006 116.174C96.9504 126.928 78.4139 122.683 75.1594 108.958C74.3104 105.42 74.8764 104.713 80.2534 102.024C83.6494 100.326 88.8849 96.9302 91.9979 94.3832C98.5069 89.1477 100.488 88.2987 105.865 88.1572L109.685 88.0157V99.9017ZM101.761 130.749C106.289 137.116 103.884 141.361 94.9694 142.776C89.3094 143.625 81.9514 141.22 80.8194 137.965C80.3949 136.833 81.1024 134.003 82.3759 131.739C84.6399 128.06 85.4889 127.636 92.2809 127.636C98.2239 127.636 100.063 128.202 101.761 130.749ZM75.8669 139.239C78.4139 145.182 83.0834 147.446 92.4224 147.446C102.186 147.446 108.129 144.333 109.261 138.673C109.968 134.711 110.393 134.428 114.921 135.135C125.392 136.833 133.457 146.738 134.731 159.473L135.58 167.256H128.222C121.288 167.256 121.005 167.114 121.005 163.294C121.005 161.171 120.439 158.624 119.732 157.492C117.751 154.379 115.345 157.068 115.345 162.445V167.256H92.8469H70.2069L69.7824 161.879C69.2164 154.945 65.3959 154.662 64.4054 161.596C63.6979 166.407 63.4149 166.548 57.0474 166.973L50.2554 167.397V161.596C50.2554 151.549 55.2079 142.635 63.6979 137.399C70.0654 133.437 73.4614 134.003 75.8669 139.239Z" fill="black"/>
</svg>
