<svg width="140" height="171" viewBox="0 0 140 171" fill="none" xmlns="http://www.w3.org/2000/svg">
<path d="M98.8424 0.023317C99.1288 0.01812 99.4152 0.0129229 99.7103 0.00756836C100.015 0.012632 100.321 0.0176955 100.635 0.0229126C100.952 0.0217964 101.27 0.0206803 101.597 0.0195303C102.266 0.0196292 102.936 0.0246681 103.605 0.0343184C104.628 0.0474627 105.651 0.0411787 106.674 0.0326196C107.326 0.0351244 107.977 0.0387538 108.628 0.043621C108.934 0.0413069 109.239 0.0389928 109.553 0.0366086C111.064 0.069805 111.715 0.112146 112.934 1.07669C113.821 2.2559 113.95 2.79667 113.941 4.24953C113.94 4.59971 113.939 4.9499 113.938 5.31069C113.935 5.69658 113.933 6.08247 113.93 6.48004C113.927 7.32016 113.924 8.16028 113.921 9.0004C113.919 9.45239 113.916 9.90438 113.914 10.3564C113.908 11.7547 113.908 13.153 113.908 14.5514C113.909 14.7875 113.909 15.0236 113.909 15.2668C113.909 15.9942 113.91 16.7216 113.91 17.449C113.913 20.4602 113.911 23.4711 113.892 26.4822C113.878 28.6777 113.875 30.873 113.884 33.0685C113.889 34.2296 113.888 35.3901 113.874 36.5511C113.859 37.8495 113.867 39.1472 113.877 40.4457C113.864 41.0165 113.864 41.0165 113.852 41.5988C113.898 44.1908 114.625 45.5079 116.401 47.383C117.625 48.2834 118.619 48.3202 120.101 48.1841C124.243 47.4417 128.403 46.4642 131.078 42.9566C132.705 40.4585 132.996 37.3176 132.464 34.4027C131.527 31.4394 130.156 28.6483 128.819 25.8501C127.33 22.6824 126.026 19.5799 125.174 16.1793C125.109 15.9214 125.045 15.6634 124.978 15.3976C124.213 10.4248 124.73 5.29567 127.703 1.12822C128.263 0.484299 128.635 0.30059 129.478 0.184697C130.966 0.11966 131.586 0.104716 132.795 1.06221C133.809 2.39327 133.828 3.04036 133.631 4.71207C133.445 5.63807 133.138 6.42464 132.774 7.29544C131.189 11.4645 132.26 15.8402 134.011 19.7914C134.633 21.1384 135.285 22.4702 135.943 23.8C138.079 28.1201 140.028 32.3274 139.919 37.2605C139.915 37.5585 139.911 37.8566 139.907 38.1636C139.763 42.9944 137.75 46.9842 134.258 50.2951C131.294 52.7937 127.858 53.9114 124.18 54.9454C124.376 55.1371 124.571 55.3288 124.772 55.5263C125.512 56.2555 126.251 56.9862 126.989 57.718C127.459 58.1831 127.931 58.6465 128.403 59.1098C132.755 63.4314 135.877 66.9811 135.905 73.2652C135.786 79.3137 131.179 83.16 127.162 87.1055C126.539 87.7193 125.917 88.3336 125.295 88.9489C124.912 89.3286 124.527 89.7075 124.141 90.0852C123.186 91.0287 122.282 91.9931 121.409 93.0137C120.135 94.4875 118.732 95.795 117.305 97.1193C116.461 97.9229 115.619 98.7288 114.777 99.5349C114.203 100.08 113.624 100.621 113.041 101.156C108.948 104.925 106.77 107.987 105.566 113.42C105.257 114.746 104.899 116.053 104.528 117.362C104.458 117.608 104.389 117.853 104.317 118.106C104.173 118.614 104.029 119.123 103.884 119.631C103.518 120.926 103.159 122.224 102.8 123.521C102.727 123.781 102.655 124.041 102.581 124.309C102.209 125.648 101.839 126.988 101.471 128.328C101.109 129.648 100.743 130.967 100.374 132.286C100.236 132.782 100.1 133.279 99.9641 133.776C99.7759 134.467 99.5833 135.157 99.3896 135.846C99.228 136.432 99.228 136.432 99.063 137.029C98.4702 138.65 97.7922 139.798 96.3483 140.761C94.1802 141.092 94.1802 141.092 93.0817 140.339C92.8788 140.152 92.6759 139.966 92.4668 139.773C92.2374 139.563 92.008 139.353 91.7717 139.136C90.5288 137.945 89.3131 136.729 88.1064 135.501C87.611 134.997 87.1149 134.494 86.618 133.992C86.2945 133.663 86.2945 133.663 85.9645 133.327C85.437 132.781 85.437 132.781 84.7516 132.478C84.6423 132.86 84.533 133.243 84.4203 133.637C83.8878 135.232 83.1911 136.727 82.453 138.235C82.3417 138.467 82.2305 138.7 82.1158 138.939C81.3456 140.481 80.68 141.415 79.0154 142.045C77.7086 142.106 76.9327 141.739 75.8056 141.092C74.998 139.982 74.7897 139.391 74.8942 138.02C75.1561 136.72 75.5688 135.698 76.1408 134.503C76.3392 134.079 76.5374 133.655 76.7356 133.23C77.0479 132.571 77.3619 131.912 77.6782 131.254C77.9848 130.613 78.2849 129.97 78.5844 129.326C78.7662 128.945 78.9481 128.564 79.1354 128.172C79.5444 127.216 79.5444 127.216 79.2032 126.424C79.066 126.235 78.9289 126.046 78.7876 125.851C78.6287 125.617 78.4699 125.383 78.3062 125.142C77.3407 124.008 76.6392 123.274 75.1287 123.053C74.35 123.069 73.5715 123.101 72.7938 123.145C65.9475 123.439 59.6729 120.903 54.5303 116.452C50.2525 112.414 47.5814 107.126 46.6482 101.332C46.6622 100.716 46.6954 100.101 46.744 99.4866C47.1704 95.4006 47.1704 95.4006 45.838 91.6937C44.9936 90.79 44.0484 90.0674 43.0035 89.4042C39.1248 91.029 35.3416 92.8426 31.5626 94.6843C29.7362 95.5741 27.9082 96.4604 26.068 97.3213C25.7889 97.4523 25.5099 97.5833 25.2224 97.7184C23.9686 98.2054 23.1316 98.2258 21.7982 98.0189C20.8671 97.4246 20.304 97.0186 19.8102 96.0309C19.7196 95.3721 19.7196 95.3721 19.6859 94.602C19.6697 94.3504 19.6534 94.0988 19.6367 93.8397C19.8993 92.6423 20.5512 92.1957 21.4668 91.3922C22.3501 90.8538 23.2701 90.4125 24.2055 89.9724C24.4682 89.8455 24.7309 89.7186 25.0015 89.5878C25.8374 89.1851 26.6755 88.7873 27.5137 88.3895C28.0716 88.1212 28.6295 87.8527 29.1872 87.5838C31.2364 86.5989 33.288 85.6204 35.3579 84.6795C35.6007 84.5689 35.8435 84.4583 36.0936 84.3444C36.7082 84.1028 36.7082 84.1028 37.3709 84.1028C36.06 82.5415 34.686 81.0772 33.2292 79.6505C29.2264 75.6588 29.2264 75.6588 28.8804 73.583C29.1042 72.4193 29.3817 71.7999 30.0815 70.8495C32.9889 69.2159 36.6276 68.4985 39.8253 67.5956C40.7148 67.344 41.6033 67.0894 42.4916 66.8339C45.0137 66.1088 47.5368 65.3869 50.0619 64.6722C51.615 64.2324 53.1665 63.7873 54.7172 63.3388C55.3052 63.1698 55.8939 63.0029 56.4831 62.838C57.3051 62.6078 58.1248 62.3709 58.9445 62.1325C59.1858 62.0667 59.4271 62.0009 59.6758 61.9331C61.2693 61.4594 62.1273 60.8245 63.2149 59.5841C63.7417 59.0588 64.2687 58.5336 64.7957 58.0086C66.3052 56.5044 67.8139 54.9995 69.3221 53.4941C70.2311 52.5869 71.1403 51.68 72.0503 50.7737C72.9359 49.8917 73.8207 49.0089 74.7049 48.1255C75.0393 47.7917 75.374 47.4582 75.709 47.125C77.4061 45.4367 79.066 43.7387 80.6245 41.921C81.7448 40.6201 82.9657 39.413 84.1718 38.1923C84.4311 37.9235 84.6903 37.6546 84.9574 37.3776C87.6229 34.6839 90.649 32.1092 94.5933 32.0717C94.9538 32.0756 95.3143 32.0794 95.6857 32.0834C95.682 31.7142 95.6783 31.345 95.6745 30.9647C95.6409 27.4839 95.6161 24.0031 95.5998 20.5222C95.5912 18.7327 95.5795 16.9433 95.5607 15.1538C95.5427 13.4265 95.5328 11.6994 95.5285 9.972C95.5254 9.31333 95.5194 8.65467 95.5105 7.99605C95.4985 7.07267 95.4968 6.14982 95.4976 5.22638C95.4887 4.81884 95.4887 4.81884 95.4795 4.40307C95.4915 3.06673 95.6081 2.1801 96.432 1.09985C97.3539 0.264801 97.6361 0.0261231 98.8424 0.023317ZM102.644 6.90198C102.644 25.8178 102.644 44.7337 102.644 64.2228C104.065 64.2228 105.487 64.2228 106.951 64.2228C106.951 45.3069 106.951 26.3911 106.951 6.90198C105.53 6.90198 104.108 6.90198 102.644 6.90198ZM90.1552 42.1438C89.6147 42.6878 89.0767 43.2345 88.5413 43.7836C88.2724 44.0542 88.0035 44.3248 87.7265 44.6035C86.5674 45.7777 85.4386 46.9612 84.3639 48.2131C82.9321 49.858 81.3874 51.3809 79.836 52.9121C79.3704 53.3746 78.9047 53.8372 78.4392 54.2998C77.3017 55.4298 76.1623 56.5579 75.0221 57.6852C74.3778 58.3223 73.7343 58.9604 73.0918 59.5994C72.4888 60.1989 71.8845 60.7971 71.2787 61.3938C71.0076 61.6637 70.7365 61.9337 70.4572 62.2119C70.098 62.5674 70.098 62.5674 69.7315 62.9301C69.108 63.5589 69.108 63.5589 68.8476 64.5541C69.1077 64.8104 69.3678 65.0667 69.6358 65.3307C69.9875 65.6792 70.3391 66.0278 70.6906 66.3764C70.946 66.6276 70.946 66.6276 71.2064 66.8838C72.1304 67.802 73.0118 68.7384 73.857 69.7299C75.2533 71.3323 76.7499 72.8234 78.2596 74.3181C78.5523 74.6096 78.845 74.9011 79.1467 75.2014C80.0754 76.1261 81.0052 77.0498 81.9353 77.9731C83.1616 79.1905 84.3866 80.409 85.611 81.6282C85.8889 81.9033 86.1668 82.1785 86.4532 82.462C87.844 83.847 89.1717 85.2573 90.4513 86.7452C91.6112 88.0517 92.8613 89.2707 94.1002 90.5017C94.3837 90.7848 94.6673 91.0679 94.9594 91.3595C95.8565 92.2547 96.7547 93.1488 97.653 94.0429C98.265 94.6532 98.877 95.2637 99.4889 95.8743C100.981 97.3631 102.475 98.851 103.969 100.338C105.536 99.0289 107.022 97.6662 108.463 96.2198C108.758 95.9246 108.758 95.9246 109.06 95.6234C109.474 95.21 109.887 94.7963 110.3 94.3821C110.924 93.7557 111.551 93.131 112.177 92.5066C114.511 90.1936 114.511 90.1936 116.711 87.7553C117.793 86.4823 118.976 85.3236 120.167 84.1546C120.375 83.9497 120.584 83.7447 120.798 83.5336C121.669 82.678 122.54 81.8232 123.416 80.9731C124.062 80.3455 124.703 79.7137 125.344 79.081C125.54 78.8929 125.736 78.7047 125.938 78.5108C127.449 77.0098 128.6 75.3782 128.983 73.249C128.919 70.6332 128.279 69.2735 126.417 67.4119C126.176 67.1838 125.935 66.9557 125.687 66.7207C125.036 66.0718 124.446 65.425 123.852 64.7275C122.265 62.8959 120.544 61.199 118.828 59.4898C118.251 58.9146 117.676 58.3376 117.101 57.7605C116.735 57.3949 116.369 57.0295 116.003 56.6642C115.831 56.4913 115.659 56.3185 115.481 56.1404C114.81 55.3126 114.81 55.3126 113.909 54.9454C113.904 55.3483 113.899 55.7511 113.894 56.1662C113.875 57.6637 113.85 59.161 113.822 60.6584C113.811 61.306 113.802 61.9535 113.794 62.6011C113.783 63.5331 113.766 64.4648 113.747 65.3967C113.745 65.6853 113.743 65.9739 113.741 66.2712C113.704 67.8134 113.667 68.9915 112.584 70.1868C111.057 70.9269 109.541 70.9467 107.874 70.9375C107.617 70.9381 107.361 70.9387 107.097 70.9394C106.557 70.9398 106.017 70.9386 105.477 70.9359C104.656 70.9323 103.835 70.9358 103.014 70.9401C102.488 70.9396 101.961 70.9388 101.434 70.9375C101.069 70.9395 101.069 70.9395 100.698 70.9415C99.1355 70.9275 97.8139 70.7511 96.3483 70.1868C95.9175 68.8942 95.9582 67.66 95.949 66.3121C95.9457 66.0179 95.9424 65.7237 95.939 65.4205C95.9286 64.4471 95.9203 63.4736 95.9122 62.5001C95.9053 61.8255 95.8984 61.1509 95.8913 60.4764C95.873 58.7001 95.8566 56.9238 95.8407 55.1475C95.824 53.3352 95.8056 51.523 95.7873 49.7107C95.7516 46.1543 95.718 42.5979 95.6857 39.0414C93.3123 39.0414 91.8074 40.5472 90.1552 42.1438ZM58.6384 69.2756C58.1044 69.4505 58.1044 69.4505 57.5596 69.629C56.6808 69.918 55.8054 70.2145 54.9316 70.5181C55.7402 71.7902 56.5536 72.8747 57.6444 73.9143C58.8041 75.0245 59.201 75.4339 59.3632 77.0827C59.3409 78.1921 59.2321 78.4807 58.597 79.4641C57.4437 80.2173 56.7746 80.4541 55.4104 80.3663C53.6562 79.8478 52.5104 78.4407 51.2869 77.1448C51.1107 76.9587 50.9344 76.7726 50.7528 76.5808C49.5887 75.347 48.4498 74.0956 47.3109 72.8375C43.2106 73.9855 43.2106 73.9855 39.0275 75.1568C40.6801 77.0898 40.6801 77.0898 42.421 78.914C42.6787 79.1706 42.9364 79.4272 43.202 79.6916C43.6105 80.096 43.6105 80.096 44.0273 80.5086C44.3132 80.7932 44.599 81.0778 44.8935 81.3711C46.108 82.5801 47.3244 83.7872 48.5407 84.9945C49.4322 85.88 50.3227 86.7665 51.2131 87.653C51.4848 87.922 51.7565 88.1909 52.0364 88.468C53.2039 89.6305 54.346 90.7969 55.4202 92.0465C56.7925 93.6414 58.2831 95.1102 59.7773 96.59C60.0774 96.8888 60.3775 97.1877 60.6867 97.4956C61.6391 98.4439 62.5925 99.3912 63.5463 100.338C64.8036 101.587 66.0597 102.836 67.3152 104.086C67.7429 104.51 67.7429 104.51 68.1793 104.942C69.5853 106.343 70.929 107.767 72.2223 109.271C73.4259 110.624 74.7266 111.883 76.0127 113.157C76.3128 113.456 76.6129 113.754 76.9221 114.062C77.8745 115.011 78.8279 115.958 79.7816 116.905C81.039 118.153 82.2951 119.403 83.5506 120.653C83.8357 120.936 84.1208 121.218 84.4146 121.509C85.8522 122.941 87.2406 124.392 88.5567 125.936C89.3888 126.893 90.2887 127.779 91.1919 128.667C91.3711 128.845 91.5503 129.023 91.7349 129.206C92.1675 129.634 92.6011 130.062 93.035 130.49C93.8952 129.629 94.0201 128.91 94.356 127.74C94.4181 127.526 94.4801 127.312 94.544 127.092C94.7487 126.383 94.9501 125.674 95.1511 124.964C95.292 124.472 95.433 123.979 95.5741 123.486C95.8694 122.452 96.163 121.418 96.4555 120.383C96.8303 119.059 97.2105 117.735 97.5921 116.413C97.8849 115.395 98.1743 114.376 98.4627 113.357C98.6014 112.869 98.7413 112.381 98.8824 111.894C99.0796 111.211 99.272 110.527 99.4632 109.843C99.6291 109.26 99.6291 109.26 99.7983 108.665C99.9961 107.611 99.9852 106.985 99.6617 105.971C99.0614 105.134 99.0614 105.134 98.238 104.299C98.0808 104.132 97.9237 103.965 97.7618 103.793C95.0059 100.898 92.1445 98.1009 89.3075 95.2854C88.1244 94.1111 86.9425 92.9358 85.7612 91.7598C85.4947 91.496 85.2282 91.2323 84.9536 90.9605C83.8015 89.8134 82.676 88.6614 81.6159 87.4281C80.2422 85.8322 78.7507 84.3621 77.2552 82.881C76.8051 82.4328 76.8051 82.4328 76.3458 81.9754C75.3934 81.0271 74.44 80.0798 73.4863 79.1328C72.2289 77.8844 70.9728 76.6348 69.7174 75.3846C69.4322 75.1022 69.1471 74.8198 68.8533 74.5288C66.9592 72.6424 65.1674 70.7022 63.4802 68.6285C61.8365 67.8674 60.2754 68.7056 58.6384 69.2756ZM53.9376 100.67C54.0217 104.878 56.6591 108.455 59.5702 111.272C59.7646 111.466 59.9589 111.659 60.1591 111.859C62.0792 113.643 64.6425 114.973 67.1909 115.58C67.8941 115.439 67.8941 115.439 68.5163 115.248C68.2562 114.992 67.996 114.736 67.7281 114.472C67.3764 114.123 67.0248 113.775 66.6732 113.426C66.503 113.258 66.3328 113.091 66.1575 112.919C65.2326 111.999 64.3504 111.063 63.5035 110.071C61.9764 108.306 60.3195 106.67 58.6667 105.024C58.1137 104.473 57.5625 103.92 57.0115 103.367C56.6608 103.016 56.3101 102.666 55.9592 102.316C55.7118 102.067 55.7118 102.067 55.4594 101.814C54.8104 101.017 54.8104 101.017 53.9376 100.67Z" fill="black"/>
<path d="M41.1605 129.206C41.6887 130.178 41.9701 130.937 41.91 132.054C40.9674 135.125 37.3823 137.853 35.1524 140.051C34.8204 140.381 34.4885 140.711 34.1567 141.041C33.293 141.9 32.4274 142.758 31.5613 143.615C30.1731 144.989 28.7871 146.365 27.4023 147.742C26.924 148.217 26.4445 148.691 25.9649 149.165C24.4527 150.666 22.9921 152.175 21.6346 153.819C20.7609 154.741 20.0537 155.03 18.8161 155.34C17.1972 155.093 16.158 154.68 15.1714 153.352C14.7092 152.212 14.8179 151.756 15.2436 150.588C15.766 149.425 16.4292 148.583 17.3096 147.652C17.5413 147.406 17.5413 147.406 17.7776 147.155C20.4642 144.329 23.2554 141.602 26.0226 138.856C27.1747 137.713 28.3255 136.568 29.4758 135.424C29.8646 135.039 29.8646 135.039 30.2614 134.646C31.6378 133.276 32.9556 131.88 34.2125 130.398C35.1274 129.369 36.0984 128.465 37.3501 127.86C38.8728 127.814 40.0187 128.21 41.1605 129.206Z" fill="black"/>
<path d="M58.9072 135.791C60.0979 136.734 60.8118 137.469 61.0091 138.987C60.8552 140.489 60.2283 141.406 59.4043 142.646C59.2684 142.859 59.1326 143.072 58.9927 143.292C58.1435 144.608 57.2387 145.876 56.3109 147.138C54.6312 149.43 53.0953 151.812 51.5597 154.202C48.8791 158.293 48.8791 158.293 46.9262 158.861C45.3074 158.805 44.46 158.487 43.3345 157.328C42.7306 156.12 42.7499 154.974 43.0032 153.683C43.6359 152.462 44.4225 151.377 45.24 150.273C45.8202 149.48 46.3721 148.669 46.9256 147.857C47.3815 147.188 47.8408 146.522 48.3007 145.857C49.0153 144.82 49.7245 143.78 50.431 142.737C50.6217 142.457 50.8123 142.176 51.0087 141.887C51.3779 141.343 51.7463 140.799 52.1138 140.254C55.5156 135.252 55.5156 135.252 58.9072 135.791Z" fill="black"/>
<path d="M32.069 108.622C33.1289 109.25 33.8455 109.73 34.3003 110.909C34.541 112.163 34.5 112.715 33.8913 113.882C32.9545 115.192 31.6842 116.023 30.3709 116.926C29.8337 117.304 29.2966 117.682 28.7595 118.061C28.4846 118.253 28.2097 118.445 27.9265 118.643C26.8653 119.389 25.8159 120.15 24.7668 120.913C16.3909 127.004 16.3909 127.004 13.9103 126.677C13.1829 126.514 13.1829 126.514 12.3546 125.996C11.6784 124.897 11.3939 123.83 11.5263 122.538C13.1078 119.305 17.0637 117.338 19.9416 115.327C20.9932 114.591 22.0361 113.844 23.0738 113.088C23.4703 112.799 23.4703 112.799 23.8749 112.505C24.3812 112.135 24.8869 111.765 25.3918 111.393C29.7206 108.237 29.7206 108.237 32.069 108.622Z" fill="black"/>
<path d="M93.0351 150.37C93.9474 150.965 94.5349 151.381 95.0231 152.358C95.4207 155.191 94.5481 157.922 93.8037 160.625C93.5938 161.388 93.3907 162.153 93.1885 162.919C93.0562 163.411 92.9236 163.903 92.7905 164.394C92.7304 164.62 92.6703 164.846 92.6084 165.078C92.1549 166.711 91.6358 168.27 90.488 169.546C89.3581 170.095 88.2875 170.143 87.0711 169.918C86.1401 169.324 85.577 168.918 85.0831 167.93C84.8049 164.873 85.6166 162.139 86.4259 159.22C86.6576 158.381 86.8803 157.541 87.1022 156.699C87.2483 156.161 87.395 155.623 87.5422 155.085C87.6079 154.835 87.6735 154.586 87.7411 154.329C88.1553 152.862 88.6235 151.811 89.7218 150.701C90.9165 150.303 91.7795 150.261 93.0351 150.37Z" fill="black"/>
<path d="M18.4233 73.9144C19.2136 74.5466 19.5165 74.8565 19.8107 75.8195C19.9637 77.5017 19.8207 78.438 18.8167 79.7955C18.0927 80.1977 18.0927 80.1977 17.2351 80.4737C16.7484 80.6329 16.7484 80.6329 16.2518 80.7954C15.8955 80.9028 15.5392 81.0102 15.1721 81.1209C14.7927 81.2368 14.4133 81.3528 14.0224 81.4723C12.7938 81.8377 11.5612 82.1853 10.3263 82.529C9.90944 82.6495 9.49258 82.7699 9.06308 82.894C6.84103 83.5136 4.8903 83.9858 2.58136 83.7715C1.63033 83.1771 1.09323 82.7833 0.593355 81.7835C0.502755 81.1248 0.502755 81.1248 0.469104 80.3547C0.452874 80.1031 0.436644 79.8515 0.419922 79.5923C0.685907 78.3795 1.30578 77.9376 2.25003 77.1449C3.19183 76.7187 4.15961 76.4518 5.15696 76.1858C5.43594 76.1072 5.71491 76.0287 6.00234 75.9478C6.59033 75.7834 7.17907 75.6218 7.76849 75.4627C8.66617 75.2199 9.56095 74.9681 10.4557 74.7149C11.0294 74.5558 11.6032 74.3972 12.1771 74.2392C12.4426 74.1647 12.7081 74.0902 12.9816 74.0134C14.8362 73.518 16.6013 73.1046 18.4233 73.9144Z" fill="black"/>
<path d="M76.1369 143.412C77.3532 144.248 77.7137 144.793 78.125 146.207C78.125 147.843 77.66 148.809 76.5511 149.997C75.472 150.537 74.6771 150.495 73.4863 150.37C72.3138 149.823 71.8923 149.47 71.1669 148.382C70.9219 146.86 70.9649 145.723 71.7882 144.406C73.0918 143.179 74.4098 143.152 76.1369 143.412Z" fill="black"/>
<path d="M64.5403 80.7895C65.4534 81.5124 66.0101 82.0724 66.5283 83.1089C66.6711 84.3652 66.5633 85.0242 66.0106 86.1737C64.9967 87.3177 64.3967 87.568 62.8837 87.7475C61.6879 87.3888 60.863 87.0137 59.9224 86.1944C59.4011 85.0599 59.3469 83.9882 59.5703 82.7775C60.8622 80.7535 62.2312 80.4226 64.5403 80.7895Z" fill="black"/>
</svg>
