<svg width="211" height="211" viewBox="0 0 211 211" fill="none" xmlns="http://www.w3.org/2000/svg">
<mask id="path-1-outside-1_735_1065" maskUnits="userSpaceOnUse" x="45.04" y="37.8972" width="131" height="136" fill="black">
<rect fill="white" x="45.04" y="37.8972" width="131" height="136"/>
<path d="M99.7259 40.0552C94.6004 40.9752 90.1977 43.2532 86.496 46.9111C85.5541 47.8311 84.7875 48.6853 84.7875 48.7948C84.7875 48.9044 85.0503 48.7729 85.4008 48.4663L85.9922 47.9406L85.4665 48.532C85.1817 48.8606 84.8532 49.0796 84.7656 49.0139C84.678 48.9701 84.4151 49.1891 84.1961 49.5177C83.9989 49.8462 83.539 50.4814 83.2104 50.8976C82.3999 51.949 80.7572 55.3003 80.2315 57.0307C79.9905 57.8192 79.3334 59.3963 78.8077 60.5353C76.683 65.0037 75.6974 68.8807 75.3907 73.7653C74.8212 83.0963 77.2963 93.6102 82.7723 105.263L83.8675 107.585L82.2028 107.957C78.8077 108.702 74.3393 109.863 72.4118 110.498C67.8558 112.031 63.4312 114.682 61.0218 117.31C57.9114 120.705 56.3124 124.538 55.5896 130.19L55.3049 132.424L54.1221 132.796C50.7708 133.826 48.0985 135.928 46.8281 138.513L46.1272 139.937L46.0614 151.108C45.9957 162.366 46.0395 163.155 46.8062 164.973C47.069 165.652 47.1566 165.696 47.5071 165.433C47.8357 165.148 47.8576 165.17 47.5947 165.499C47.3319 165.827 47.3538 165.959 47.7261 166.484C49.4346 168.85 53.1145 170.909 57.6267 171.982C63.5188 173.406 71.3604 173.143 76.8583 171.369C78.6325 170.777 81.94 169.157 83.1228 168.28L83.9989 167.645H105.53C128.42 167.645 128.07 167.667 128.464 166.66C128.529 166.462 128.595 161.293 128.595 155.182V144.055L128.026 143.529L127.456 143.003H105.421H83.3637L81.9838 144.142C80.3191 145.479 78.5449 146.464 76.4202 147.187C75.5659 147.472 74.8212 147.713 74.7993 147.713C74.7774 147.713 74.7117 145.479 74.6679 142.719L74.6022 137.746L73.9013 136.651C72.9813 135.228 71.7985 134.264 69.8271 133.366C67.6148 132.358 65.4245 131.898 62.0732 131.767L59.16 131.657V130.869C59.16 129.554 59.9485 126.203 60.6275 124.582C62.577 119.961 66.213 116.697 71.8423 114.528C74.0327 113.674 81.1733 111.747 81.3705 111.966C81.4362 112.031 81.5019 112.316 81.5019 112.601C81.5019 113.499 82.2904 115.405 83.2104 116.763C86.1017 121.034 91.8405 123.859 99.5288 124.845C106.713 125.765 114.971 124.276 119.987 121.187C120.622 120.793 120.688 120.683 120.447 120.355C120.184 120.048 120.206 120.026 120.535 120.311C120.863 120.552 121.038 120.508 121.783 119.917C124.105 118.077 126.076 115.142 126.339 113.105C126.405 112.601 126.602 112.141 126.777 112.075C127.171 111.922 131.421 112.951 134.268 113.915C136.853 114.769 140.029 116.303 141.562 117.42C142.526 118.121 142.57 118.208 142.46 118.975C142.395 119.413 141.803 121.384 141.146 123.356C137.598 134.11 136.393 144.186 138.342 146.749C138.978 147.581 139.963 147.932 142.942 148.348C145.439 148.72 150.652 149.246 151.769 149.246H152.689V153.933V158.599L150.784 158.752C146.14 159.125 141.803 160.198 139.722 161.512C137.028 163.199 136.546 166.002 138.605 167.886C142.92 171.829 158.691 172.88 166.949 169.77C170.234 168.521 171.527 167.163 171.527 164.929C171.527 163.024 169.555 161.293 166.16 160.198C163.86 159.475 162.349 159.19 158.823 158.818L156.304 158.555L156.238 153.933L156.194 149.312L158.538 149.158C163.839 148.83 168.964 147.997 169.884 147.34C171.702 146.026 171.943 141.623 170.629 134.461C170.213 132.117 168.789 126.378 168.526 125.984C168.46 125.853 168.11 126.05 167.715 126.4L167.036 127.014L167.737 126.247L168.438 125.48L167.409 122.523C166.401 119.61 166.379 119.522 166.401 116.938C166.401 112.995 167.102 110.739 170.848 102.416C173.695 96.1291 174.221 94.4863 174.243 91.7483C174.265 89.7989 174.199 89.4484 173.739 88.638C172.622 86.6885 170.541 85.5495 166.598 84.7391C163.006 84.0163 161.823 83.3591 160.969 81.6945C160.662 81.1031 160.684 81.0154 161.385 79.986C162.94 77.6422 163.116 75.3642 161.889 72.8672C160.4 69.8445 157.202 68.2893 153.215 68.6617C151.266 68.8369 149.93 69.4283 148.572 70.6987C145.855 73.2396 145.417 77.0946 147.542 80.0517L148.243 81.0373L147.849 81.8478C147.038 83.4249 145.615 84.1258 141.847 84.8486C138.101 85.5714 136.086 86.7542 135.035 88.9227C134.487 90.0179 134.465 90.2808 134.575 92.0331C134.706 94.4425 135.429 96.6329 137.861 102.065C138.868 104.343 140.051 107.103 140.489 108.22C141.256 110.169 142.241 113.324 142.066 113.324C142.022 113.324 141.299 112.995 140.489 112.579C136.984 110.827 133.633 109.731 127.697 108.395L124.061 107.563L125.112 105.285C128.42 98.2319 130.764 91.1569 131.903 84.6953C132.494 81.4097 132.713 74.3348 132.319 71.4215C131.815 67.5665 130.829 64.2809 129.033 60.4039C128.529 59.3306 127.938 57.8411 127.697 57.1183C125.638 50.5253 120.337 44.5893 114.007 41.8513C109.539 39.88 104.304 39.2229 99.7259 40.0552ZM108.378 43.757C115.869 45.3559 122.09 51.0509 124.28 58.3449C125.638 62.8571 125.594 65.9237 124.061 72.7577C123.842 73.6995 123.645 73.4148 123.01 71.312C122.243 68.6397 120.578 65.0694 119.308 63.3171C117.359 60.5572 114.971 58.6516 110.415 56.1545C106.144 53.8108 103.756 52.168 101.434 49.9338C99.8792 48.4444 99.4412 48.2034 98.5431 48.4225C97.8641 48.5977 97.6669 48.9044 95.6737 52.869C93.0233 58.1478 91.1615 61.3458 89.0587 64.3247C87.3721 66.7122 83.7799 70.6768 83.4732 70.5016C83.2323 70.3483 82.8599 68.0483 82.6847 65.7922C82.2247 59.3525 85.4227 52.168 90.592 48.0501C95.7394 43.976 102.135 42.4208 108.378 43.757ZM89.1682 44.8302C89.1682 44.8522 88.5549 45.4655 87.8102 46.1883L86.4303 47.5025L87.7445 46.1226C88.9492 44.8522 89.1682 44.655 89.1682 44.8302ZM101.172 54.4679C103.231 56.1107 104.83 57.1621 108.115 59.0021C113.328 61.9153 114.818 63.12 116.658 65.8799C117.928 67.7855 118.936 70.0854 119.724 72.911C120.294 74.8824 121.148 78.8908 121.148 79.5917C121.148 80.884 117.665 86.1409 115.015 88.8132C108.904 94.9901 102.552 95.9539 96.1337 91.6169C91.8843 88.7475 87.2188 82.1544 84.8313 75.6052L84.3713 74.3567L85.2913 73.6995C89.0368 71.1368 94.4909 63.58 98.3241 55.6508C98.9593 54.3584 99.5288 53.307 99.5945 53.307C99.6602 53.307 100.361 53.8327 101.172 54.4679ZM79.7496 70.633C79.7496 72.0787 81.5895 77.467 83.3199 81.125C84.3713 83.3153 86.5836 86.9076 86.7807 86.7104C86.8464 86.6447 87.1312 86.8638 87.4378 87.2142L87.9635 87.8056L87.3721 87.2799C86.3865 86.4038 86.6712 87.039 87.9635 88.5723C90.0882 91.1131 90.6577 92.0769 91.1615 94.0263C91.7967 96.5015 91.6872 100.532 90.9425 102.437C90.3511 103.927 88.993 105.723 88.0731 106.205L87.4159 106.533L86.5617 104.825C82.838 97.3995 79.9029 87.959 79.0706 80.6869C78.8296 78.4527 78.8953 73.1519 79.2239 71.093C79.3772 70.1511 79.7496 69.8007 79.7496 70.633ZM128.902 76.5251C128.902 80.2926 128.836 81.4754 128.398 83.8629C127.237 90.4122 125.134 96.7862 121.717 103.971C120.863 105.811 120.425 106.512 120.228 106.402C118.585 105.482 117.337 103.752 116.723 101.539C115.979 98.8452 116.329 94.2454 117.446 92.0331C117.687 91.5731 118.519 90.3903 119.33 89.4046C123.294 84.4981 126.514 78.0365 127.807 72.3634C128.026 71.4653 128.245 70.5673 128.31 70.3921C128.617 69.6035 128.88 72.3853 128.902 76.5251ZM156.764 72.692C159.37 73.9843 159.808 76.5032 157.815 78.606C156.851 79.5917 156.807 79.7012 156.895 80.665C157.136 83.2058 159.239 86.0095 161.758 87.1704C162.393 87.4552 164.167 87.959 165.7 88.2437C169.336 88.9665 170.432 89.6236 170.76 91.2007C170.848 91.6169 171.176 92.2521 171.505 92.6245L172.074 93.2816L171.395 92.6683L170.716 92.055L170.563 92.953C170.344 94.3987 169.621 96.2605 167.453 101.101C164.211 108.351 163.203 111.308 162.743 115.142C162.415 117.836 162.743 119.961 164.101 123.969C166.401 130.825 167.562 136.235 167.737 141.163L167.869 144.361L166.357 144.646C160.619 145.654 151.967 145.829 145.724 145.084C143.709 144.843 141.825 144.602 141.54 144.515L141.015 144.405L141.146 141.076C141.321 136.147 142.438 130.891 144.76 124.078C145.943 120.552 145.987 120.355 146.074 117.661C146.206 113.367 145.461 110.41 142.614 103.905C139.262 96.2386 138.824 95.2091 138.408 93.5444C137.532 90.1055 138.342 89.2513 143.336 88.2218C144.804 87.9152 146.513 87.4333 147.148 87.1485C149.579 86.0533 151.748 83.162 151.989 80.7307C152.076 79.745 152.032 79.6136 151.288 78.9346C149.01 76.7661 149.382 73.9624 152.142 72.5167C153.215 71.9472 155.449 72.0349 156.764 72.692ZM163.225 84.3448C163.51 84.6953 163.488 84.7172 163.159 84.4324C162.94 84.2791 162.765 84.1039 162.765 84.0601C162.765 83.8848 162.94 83.9944 163.225 84.3448ZM164.758 85.8781C165.043 86.2286 165.021 86.2505 164.693 85.9657C164.474 85.8124 164.298 85.6371 164.298 85.5933C164.298 85.4181 164.474 85.5276 164.758 85.8781ZM166.182 87.3018L166.817 88.0247L166.117 87.3895C165.437 86.7762 165.284 86.6009 165.459 86.6009C165.503 86.6009 165.81 86.9295 166.182 87.3018ZM89.1682 88.9008C89.453 89.2075 89.6282 89.4484 89.5625 89.4484C89.5187 89.4484 89.234 89.2075 88.9492 88.9008C88.6645 88.5942 88.4892 88.3532 88.5549 88.3532C88.5987 88.3532 88.8835 88.5942 89.1682 88.9008ZM91.0301 90.7627C91.2491 91.0036 91.3805 91.2007 91.3148 91.2007C91.2491 91.2007 91.0301 91.0036 90.811 90.7627C90.592 90.5217 90.4606 90.3246 90.5263 90.3246C90.592 90.3246 90.811 90.5217 91.0301 90.7627ZM92.7824 92.515C93.0014 92.7559 93.1328 92.953 93.0671 92.953C93.0014 92.953 92.7824 92.7559 92.5633 92.515C92.3443 92.274 92.2129 92.0769 92.2786 92.0769C92.3443 92.0769 92.5633 92.274 92.7824 92.515ZM173.06 94.1578C173.345 94.4644 173.52 94.7054 173.454 94.7054C173.41 94.7054 173.126 94.4644 172.841 94.1578C172.556 93.8511 172.381 93.6102 172.447 93.6102C172.491 93.6102 172.775 93.8511 173.06 94.1578ZM94.5347 94.2673C94.7537 94.5082 94.8852 94.7054 94.8194 94.7054C94.7537 94.7054 94.5347 94.5082 94.3157 94.2673C94.0966 94.0263 93.9652 93.8292 94.0309 93.8292C94.0966 93.8292 94.3157 94.0263 94.5347 94.2673ZM100.361 97.4433C103.778 98.2757 107.765 97.7938 111.072 96.1291C111.904 95.7129 112.627 95.3625 112.671 95.3625C112.715 95.3625 112.715 96.37 112.649 97.5967L112.562 99.8528L113.175 99.3052L113.81 98.7576L113.328 99.3271C112.693 100.028 112.693 100.817 113.284 102.722C114.007 105.044 114.686 106.205 116.285 107.804C117.797 109.337 119.089 109.994 121.871 110.739C122.856 111.002 122.9 111.046 122.9 111.79C122.878 114.068 120.359 117.003 116.877 118.756C115.102 119.632 111.664 120.683 109.013 121.121C106.078 121.603 99.7916 121.45 97.0536 120.793C89.9349 119.128 85.0722 115.426 85.0065 111.659C85.0065 111.024 85.0722 110.958 85.8389 110.805C86.2769 110.717 87.4378 110.345 88.4016 109.994C92.8043 108.286 95.5423 103.248 95.2575 97.3338L95.148 95.231L96.966 96.151C97.9736 96.6548 99.5069 97.2462 100.361 97.4433ZM115.234 97.4214C115.234 97.4652 115.059 97.6405 114.861 97.7938C114.511 98.0785 114.489 98.0566 114.774 97.7062C115.059 97.3557 115.234 97.2462 115.234 97.4214ZM119.067 118.8C119.286 119.041 119.417 119.238 119.352 119.238C119.286 119.238 119.067 119.041 118.848 118.8C118.629 118.559 118.498 118.362 118.563 118.362C118.629 118.362 118.848 118.559 119.067 118.8ZM92.4538 120.18C92.4538 120.223 92.2348 120.442 91.9719 120.683L91.4681 121.1L91.8843 120.596C92.2786 120.136 92.4538 120.004 92.4538 120.18ZM166.708 127.408C166.708 127.452 166.445 127.714 166.117 128.021L165.503 128.547L166.029 127.934C166.533 127.386 166.708 127.233 166.708 127.408ZM65.7311 135.797C71.5137 137.111 72.7842 140.265 68.2501 142.018C67.1549 142.434 66.4977 142.543 64.4169 142.543C61.6132 142.565 60.4085 142.302 59.379 141.448C58.8752 141.01 58.7219 140.703 58.7219 140.134C58.7219 138.535 56.8819 137.703 55.7649 138.82C55.1296 139.455 54.9325 140.813 55.0639 144.164C55.1077 145.522 55.0639 146.683 54.9763 146.749C54.6697 146.924 52.7421 145.829 51.6469 144.865C49.807 143.244 49.3032 141.536 50.1575 139.871C51.6907 136.914 56.5972 135.074 62.2265 135.359C63.3655 135.425 64.9426 135.6 65.7311 135.797ZM70.988 146.705V148.545L69.5424 148.72C67.6586 148.917 61.8541 148.698 60.1018 148.37L58.7219 148.107V146.683C58.7219 145.413 58.7657 145.281 59.1161 145.413C61.8979 146.486 66.5635 146.42 69.7833 145.238C70.2652 145.062 70.7252 144.909 70.8347 144.887C70.9223 144.887 70.988 145.698 70.988 146.705ZM125.091 155.27V163.922H122.243H119.396V158.38C119.374 152.444 119.352 152.313 118.235 151.896C117.556 151.633 117.074 151.765 116.395 152.378C115.891 152.816 115.891 152.904 115.891 158.38V163.922H114.686H113.482V162.257C113.482 161.359 113.394 160.417 113.262 160.198C112.978 159.65 111.839 159.3 111.204 159.541C110.284 159.891 109.977 160.592 109.977 162.323V163.922H108.838H107.677L107.743 158.73C107.808 153.057 107.721 152.51 106.669 151.962C105.881 151.568 105.07 151.743 104.501 152.466C104.085 152.992 104.063 153.364 104.063 158.468V163.922H102.99H101.916L101.829 162.147C101.763 160.614 101.697 160.329 101.237 159.957C100.953 159.738 100.405 159.541 100.011 159.541C99.6164 159.541 99.0688 159.738 98.784 159.957C98.3241 160.329 98.2583 160.614 98.1926 162.147L98.105 163.922H97.0317H95.9584V158.489C95.9584 152.619 95.8927 152.313 94.7318 151.853C93.9433 151.568 92.8262 152.093 92.4757 152.904C92.3005 153.342 92.2348 155.05 92.2786 158.73L92.3443 163.922H91.2053H90.0444V162.301C90.0444 161.008 89.9568 160.592 89.5844 160.11C88.993 159.366 87.7883 159.322 87.0436 160.023C86.6055 160.439 86.5398 160.702 86.5398 162.213V163.922H85.4446H84.3494V159.278C84.3494 154.81 84.3275 154.612 83.8675 154.131C83.2761 153.495 82.1809 153.473 81.48 154.043C80.9543 154.459 80.9543 154.503 80.8448 160.001L80.7353 165.521L79.7496 166.134C79.202 166.462 78.5449 166.791 78.282 166.879C77.8001 167.01 77.7782 166.966 77.7782 165.586C77.7782 164.075 77.5373 163.637 76.5516 163.264C75.9164 163.024 74.7774 163.374 74.4927 163.922C74.3612 164.141 74.2736 165.214 74.2736 166.309C74.2736 168.478 74.3612 168.346 72.6965 168.653L71.8642 168.784V163.527V158.248L71.2947 157.81C70.4623 157.153 69.3891 157.197 68.8196 157.92C68.3815 158.468 68.3596 158.774 68.3596 163.834V169.178H67.1549H65.9501V167.58C65.9501 165.871 65.8625 165.652 65.1397 165.258C64.3731 164.863 63.5626 164.973 62.9931 165.564C62.5331 166.002 62.4455 166.287 62.4455 167.492C62.4455 168.259 62.4017 168.938 62.3579 168.981C62.2922 169.025 61.8103 169.047 61.2627 169.003L60.277 168.916L60.2113 163.549C60.1456 158.205 60.1456 158.183 59.6199 157.767C58.8971 157.175 57.7362 157.219 57.0791 157.898C56.5315 158.424 56.5315 158.424 56.5315 163.155C56.5315 165.74 56.5096 167.864 56.4658 167.864C56.422 167.864 55.9401 167.711 55.3925 167.514L54.3849 167.185L54.2973 164.666C54.2316 162.279 54.2097 162.125 53.684 161.731C52.4355 160.767 50.8146 161.556 50.727 163.155C50.6613 164.228 50.5079 164.294 50.0918 163.396C49.7851 162.761 49.7413 161.644 49.7413 155.379V148.107L50.4641 148.589C54.2316 151.13 61.6132 152.794 67.4834 152.466C74.1422 152.072 79.6839 150.385 83.3637 147.603L84.678 146.618H104.873H125.091V155.27ZM162.305 162.914C164.78 163.44 166.796 164.119 167.496 164.688L168.11 165.192L166.817 165.827C162.524 167.974 153.128 168.653 146.556 167.317C144.607 166.922 141.803 165.981 141.19 165.521C140.752 165.214 140.752 165.214 141.256 164.798C142.176 164.031 145.22 163.089 148.287 162.607C150.302 162.301 160.422 162.52 162.305 162.914ZM83.6923 164.907C83.977 165.214 84.1523 165.455 84.0865 165.455C84.0427 165.455 83.758 165.214 83.4732 164.907C83.1885 164.601 83.0133 164.36 83.079 164.36C83.1228 164.36 83.4075 164.601 83.6923 164.907ZM85.3351 166.55C85.5541 166.791 85.6855 166.988 85.6198 166.988C85.5541 166.988 85.3351 166.791 85.116 166.55C84.897 166.309 84.7656 166.112 84.8313 166.112C84.897 166.112 85.116 166.309 85.3351 166.55ZM128.376 166.178C128.376 166.221 128.157 166.441 127.894 166.681L127.39 167.098L127.807 166.594C128.201 166.134 128.376 166.002 128.376 166.178ZM167.584 167.755C168.241 168.412 168.723 168.959 168.657 168.959C168.614 168.959 168.022 168.412 167.365 167.755C166.708 167.098 166.226 166.55 166.292 166.55C166.336 166.55 166.927 167.098 167.584 167.755Z"/>
</mask>
<path d="M99.7259 40.0552C94.6004 40.9752 90.1977 43.2532 86.496 46.9111C85.5541 47.8311 84.7875 48.6853 84.7875 48.7948C84.7875 48.9044 85.0503 48.7729 85.4008 48.4663L85.9922 47.9406L85.4665 48.532C85.1817 48.8606 84.8532 49.0796 84.7656 49.0139C84.678 48.9701 84.4151 49.1891 84.1961 49.5177C83.9989 49.8462 83.539 50.4814 83.2104 50.8976C82.3999 51.949 80.7572 55.3003 80.2315 57.0307C79.9905 57.8192 79.3334 59.3963 78.8077 60.5353C76.683 65.0037 75.6974 68.8807 75.3907 73.7653C74.8212 83.0963 77.2963 93.6102 82.7723 105.263L83.8675 107.585L82.2028 107.957C78.8077 108.702 74.3393 109.863 72.4118 110.498C67.8558 112.031 63.4312 114.682 61.0218 117.31C57.9114 120.705 56.3124 124.538 55.5896 130.19L55.3049 132.424L54.1221 132.796C50.7708 133.826 48.0985 135.928 46.8281 138.513L46.1272 139.937L46.0614 151.108C45.9957 162.366 46.0395 163.155 46.8062 164.973C47.069 165.652 47.1566 165.696 47.5071 165.433C47.8357 165.148 47.8576 165.17 47.5947 165.499C47.3319 165.827 47.3538 165.959 47.7261 166.484C49.4346 168.85 53.1145 170.909 57.6267 171.982C63.5188 173.406 71.3604 173.143 76.8583 171.369C78.6325 170.777 81.94 169.157 83.1228 168.28L83.9989 167.645H105.53C128.42 167.645 128.07 167.667 128.464 166.66C128.529 166.462 128.595 161.293 128.595 155.182V144.055L128.026 143.529L127.456 143.003H105.421H83.3637L81.9838 144.142C80.3191 145.479 78.5449 146.464 76.4202 147.187C75.5659 147.472 74.8212 147.713 74.7993 147.713C74.7774 147.713 74.7117 145.479 74.6679 142.719L74.6022 137.746L73.9013 136.651C72.9813 135.228 71.7985 134.264 69.8271 133.366C67.6148 132.358 65.4245 131.898 62.0732 131.767L59.16 131.657V130.869C59.16 129.554 59.9485 126.203 60.6275 124.582C62.577 119.961 66.213 116.697 71.8423 114.528C74.0327 113.674 81.1733 111.747 81.3705 111.966C81.4362 112.031 81.5019 112.316 81.5019 112.601C81.5019 113.499 82.2904 115.405 83.2104 116.763C86.1017 121.034 91.8405 123.859 99.5288 124.845C106.713 125.765 114.971 124.276 119.987 121.187C120.622 120.793 120.688 120.683 120.447 120.355C120.184 120.048 120.206 120.026 120.535 120.311C120.863 120.552 121.038 120.508 121.783 119.917C124.105 118.077 126.076 115.142 126.339 113.105C126.405 112.601 126.602 112.141 126.777 112.075C127.171 111.922 131.421 112.951 134.268 113.915C136.853 114.769 140.029 116.303 141.562 117.42C142.526 118.121 142.57 118.208 142.46 118.975C142.395 119.413 141.803 121.384 141.146 123.356C137.598 134.11 136.393 144.186 138.342 146.749C138.978 147.581 139.963 147.932 142.942 148.348C145.439 148.72 150.652 149.246 151.769 149.246H152.689V153.933V158.599L150.784 158.752C146.14 159.125 141.803 160.198 139.722 161.512C137.028 163.199 136.546 166.002 138.605 167.886C142.92 171.829 158.691 172.88 166.949 169.77C170.234 168.521 171.527 167.163 171.527 164.929C171.527 163.024 169.555 161.293 166.16 160.198C163.86 159.475 162.349 159.19 158.823 158.818L156.304 158.555L156.238 153.933L156.194 149.312L158.538 149.158C163.839 148.83 168.964 147.997 169.884 147.34C171.702 146.026 171.943 141.623 170.629 134.461C170.213 132.117 168.789 126.378 168.526 125.984C168.46 125.853 168.11 126.05 167.715 126.4L167.036 127.014L167.737 126.247L168.438 125.48L167.409 122.523C166.401 119.61 166.379 119.522 166.401 116.938C166.401 112.995 167.102 110.739 170.848 102.416C173.695 96.1291 174.221 94.4863 174.243 91.7483C174.265 89.7989 174.199 89.4484 173.739 88.638C172.622 86.6885 170.541 85.5495 166.598 84.7391C163.006 84.0163 161.823 83.3591 160.969 81.6945C160.662 81.1031 160.684 81.0154 161.385 79.986C162.94 77.6422 163.116 75.3642 161.889 72.8672C160.4 69.8445 157.202 68.2893 153.215 68.6617C151.266 68.8369 149.93 69.4283 148.572 70.6987C145.855 73.2396 145.417 77.0946 147.542 80.0517L148.243 81.0373L147.849 81.8478C147.038 83.4249 145.615 84.1258 141.847 84.8486C138.101 85.5714 136.086 86.7542 135.035 88.9227C134.487 90.0179 134.465 90.2808 134.575 92.0331C134.706 94.4425 135.429 96.6329 137.861 102.065C138.868 104.343 140.051 107.103 140.489 108.22C141.256 110.169 142.241 113.324 142.066 113.324C142.022 113.324 141.299 112.995 140.489 112.579C136.984 110.827 133.633 109.731 127.697 108.395L124.061 107.563L125.112 105.285C128.42 98.2319 130.764 91.1569 131.903 84.6953C132.494 81.4097 132.713 74.3348 132.319 71.4215C131.815 67.5665 130.829 64.2809 129.033 60.4039C128.529 59.3306 127.938 57.8411 127.697 57.1183C125.638 50.5253 120.337 44.5893 114.007 41.8513C109.539 39.88 104.304 39.2229 99.7259 40.0552ZM108.378 43.757C115.869 45.3559 122.09 51.0509 124.28 58.3449C125.638 62.8571 125.594 65.9237 124.061 72.7577C123.842 73.6995 123.645 73.4148 123.01 71.312C122.243 68.6397 120.578 65.0694 119.308 63.3171C117.359 60.5572 114.971 58.6516 110.415 56.1545C106.144 53.8108 103.756 52.168 101.434 49.9338C99.8792 48.4444 99.4412 48.2034 98.5431 48.4225C97.8641 48.5977 97.6669 48.9044 95.6737 52.869C93.0233 58.1478 91.1615 61.3458 89.0587 64.3247C87.3721 66.7122 83.7799 70.6768 83.4732 70.5016C83.2323 70.3483 82.8599 68.0483 82.6847 65.7922C82.2247 59.3525 85.4227 52.168 90.592 48.0501C95.7394 43.976 102.135 42.4208 108.378 43.757ZM89.1682 44.8302C89.1682 44.8522 88.5549 45.4655 87.8102 46.1883L86.4303 47.5025L87.7445 46.1226C88.9492 44.8522 89.1682 44.655 89.1682 44.8302ZM101.172 54.4679C103.231 56.1107 104.83 57.1621 108.115 59.0021C113.328 61.9153 114.818 63.12 116.658 65.8799C117.928 67.7855 118.936 70.0854 119.724 72.911C120.294 74.8824 121.148 78.8908 121.148 79.5917C121.148 80.884 117.665 86.1409 115.015 88.8132C108.904 94.9901 102.552 95.9539 96.1337 91.6169C91.8843 88.7475 87.2188 82.1544 84.8313 75.6052L84.3713 74.3567L85.2913 73.6995C89.0368 71.1368 94.4909 63.58 98.3241 55.6508C98.9593 54.3584 99.5288 53.307 99.5945 53.307C99.6602 53.307 100.361 53.8327 101.172 54.4679ZM79.7496 70.633C79.7496 72.0787 81.5895 77.467 83.3199 81.125C84.3713 83.3153 86.5836 86.9076 86.7807 86.7104C86.8464 86.6447 87.1312 86.8638 87.4378 87.2142L87.9635 87.8056L87.3721 87.2799C86.3865 86.4038 86.6712 87.039 87.9635 88.5723C90.0882 91.1131 90.6577 92.0769 91.1615 94.0263C91.7967 96.5015 91.6872 100.532 90.9425 102.437C90.3511 103.927 88.993 105.723 88.0731 106.205L87.4159 106.533L86.5617 104.825C82.838 97.3995 79.9029 87.959 79.0706 80.6869C78.8296 78.4527 78.8953 73.1519 79.2239 71.093C79.3772 70.1511 79.7496 69.8007 79.7496 70.633ZM128.902 76.5251C128.902 80.2926 128.836 81.4754 128.398 83.8629C127.237 90.4122 125.134 96.7862 121.717 103.971C120.863 105.811 120.425 106.512 120.228 106.402C118.585 105.482 117.337 103.752 116.723 101.539C115.979 98.8452 116.329 94.2454 117.446 92.0331C117.687 91.5731 118.519 90.3903 119.33 89.4046C123.294 84.4981 126.514 78.0365 127.807 72.3634C128.026 71.4653 128.245 70.5673 128.31 70.3921C128.617 69.6035 128.88 72.3853 128.902 76.5251ZM156.764 72.692C159.37 73.9843 159.808 76.5032 157.815 78.606C156.851 79.5917 156.807 79.7012 156.895 80.665C157.136 83.2058 159.239 86.0095 161.758 87.1704C162.393 87.4552 164.167 87.959 165.7 88.2437C169.336 88.9665 170.432 89.6236 170.76 91.2007C170.848 91.6169 171.176 92.2521 171.505 92.6245L172.074 93.2816L171.395 92.6683L170.716 92.055L170.563 92.953C170.344 94.3987 169.621 96.2605 167.453 101.101C164.211 108.351 163.203 111.308 162.743 115.142C162.415 117.836 162.743 119.961 164.101 123.969C166.401 130.825 167.562 136.235 167.737 141.163L167.869 144.361L166.357 144.646C160.619 145.654 151.967 145.829 145.724 145.084C143.709 144.843 141.825 144.602 141.54 144.515L141.015 144.405L141.146 141.076C141.321 136.147 142.438 130.891 144.76 124.078C145.943 120.552 145.987 120.355 146.074 117.661C146.206 113.367 145.461 110.41 142.614 103.905C139.262 96.2386 138.824 95.2091 138.408 93.5444C137.532 90.1055 138.342 89.2513 143.336 88.2218C144.804 87.9152 146.513 87.4333 147.148 87.1485C149.579 86.0533 151.748 83.162 151.989 80.7307C152.076 79.745 152.032 79.6136 151.288 78.9346C149.01 76.7661 149.382 73.9624 152.142 72.5167C153.215 71.9472 155.449 72.0349 156.764 72.692ZM163.225 84.3448C163.51 84.6953 163.488 84.7172 163.159 84.4324C162.94 84.2791 162.765 84.1039 162.765 84.0601C162.765 83.8848 162.94 83.9944 163.225 84.3448ZM164.758 85.8781C165.043 86.2286 165.021 86.2505 164.693 85.9657C164.474 85.8124 164.298 85.6371 164.298 85.5933C164.298 85.4181 164.474 85.5276 164.758 85.8781ZM166.182 87.3018L166.817 88.0247L166.117 87.3895C165.437 86.7762 165.284 86.6009 165.459 86.6009C165.503 86.6009 165.81 86.9295 166.182 87.3018ZM89.1682 88.9008C89.453 89.2075 89.6282 89.4484 89.5625 89.4484C89.5187 89.4484 89.234 89.2075 88.9492 88.9008C88.6645 88.5942 88.4892 88.3532 88.5549 88.3532C88.5987 88.3532 88.8835 88.5942 89.1682 88.9008ZM91.0301 90.7627C91.2491 91.0036 91.3805 91.2007 91.3148 91.2007C91.2491 91.2007 91.0301 91.0036 90.811 90.7627C90.592 90.5217 90.4606 90.3246 90.5263 90.3246C90.592 90.3246 90.811 90.5217 91.0301 90.7627ZM92.7824 92.515C93.0014 92.7559 93.1328 92.953 93.0671 92.953C93.0014 92.953 92.7824 92.7559 92.5633 92.515C92.3443 92.274 92.2129 92.0769 92.2786 92.0769C92.3443 92.0769 92.5633 92.274 92.7824 92.515ZM173.06 94.1578C173.345 94.4644 173.52 94.7054 173.454 94.7054C173.41 94.7054 173.126 94.4644 172.841 94.1578C172.556 93.8511 172.381 93.6102 172.447 93.6102C172.491 93.6102 172.775 93.8511 173.06 94.1578ZM94.5347 94.2673C94.7537 94.5082 94.8852 94.7054 94.8194 94.7054C94.7537 94.7054 94.5347 94.5082 94.3157 94.2673C94.0966 94.0263 93.9652 93.8292 94.0309 93.8292C94.0966 93.8292 94.3157 94.0263 94.5347 94.2673ZM100.361 97.4433C103.778 98.2757 107.765 97.7938 111.072 96.1291C111.904 95.7129 112.627 95.3625 112.671 95.3625C112.715 95.3625 112.715 96.37 112.649 97.5967L112.562 99.8528L113.175 99.3052L113.81 98.7576L113.328 99.3271C112.693 100.028 112.693 100.817 113.284 102.722C114.007 105.044 114.686 106.205 116.285 107.804C117.797 109.337 119.089 109.994 121.871 110.739C122.856 111.002 122.9 111.046 122.9 111.79C122.878 114.068 120.359 117.003 116.877 118.756C115.102 119.632 111.664 120.683 109.013 121.121C106.078 121.603 99.7916 121.45 97.0536 120.793C89.9349 119.128 85.0722 115.426 85.0065 111.659C85.0065 111.024 85.0722 110.958 85.8389 110.805C86.2769 110.717 87.4378 110.345 88.4016 109.994C92.8043 108.286 95.5423 103.248 95.2575 97.3338L95.148 95.231L96.966 96.151C97.9736 96.6548 99.5069 97.2462 100.361 97.4433ZM115.234 97.4214C115.234 97.4652 115.059 97.6405 114.861 97.7938C114.511 98.0785 114.489 98.0566 114.774 97.7062C115.059 97.3557 115.234 97.2462 115.234 97.4214ZM119.067 118.8C119.286 119.041 119.417 119.238 119.352 119.238C119.286 119.238 119.067 119.041 118.848 118.8C118.629 118.559 118.498 118.362 118.563 118.362C118.629 118.362 118.848 118.559 119.067 118.8ZM92.4538 120.18C92.4538 120.223 92.2348 120.442 91.9719 120.683L91.4681 121.1L91.8843 120.596C92.2786 120.136 92.4538 120.004 92.4538 120.18ZM166.708 127.408C166.708 127.452 166.445 127.714 166.117 128.021L165.503 128.547L166.029 127.934C166.533 127.386 166.708 127.233 166.708 127.408ZM65.7311 135.797C71.5137 137.111 72.7842 140.265 68.2501 142.018C67.1549 142.434 66.4977 142.543 64.4169 142.543C61.6132 142.565 60.4085 142.302 59.379 141.448C58.8752 141.01 58.7219 140.703 58.7219 140.134C58.7219 138.535 56.8819 137.703 55.7649 138.82C55.1296 139.455 54.9325 140.813 55.0639 144.164C55.1077 145.522 55.0639 146.683 54.9763 146.749C54.6697 146.924 52.7421 145.829 51.6469 144.865C49.807 143.244 49.3032 141.536 50.1575 139.871C51.6907 136.914 56.5972 135.074 62.2265 135.359C63.3655 135.425 64.9426 135.6 65.7311 135.797ZM70.988 146.705V148.545L69.5424 148.72C67.6586 148.917 61.8541 148.698 60.1018 148.37L58.7219 148.107V146.683C58.7219 145.413 58.7657 145.281 59.1161 145.413C61.8979 146.486 66.5635 146.42 69.7833 145.238C70.2652 145.062 70.7252 144.909 70.8347 144.887C70.9223 144.887 70.988 145.698 70.988 146.705ZM125.091 155.27V163.922H122.243H119.396V158.38C119.374 152.444 119.352 152.313 118.235 151.896C117.556 151.633 117.074 151.765 116.395 152.378C115.891 152.816 115.891 152.904 115.891 158.38V163.922H114.686H113.482V162.257C113.482 161.359 113.394 160.417 113.262 160.198C112.978 159.65 111.839 159.3 111.204 159.541C110.284 159.891 109.977 160.592 109.977 162.323V163.922H108.838H107.677L107.743 158.73C107.808 153.057 107.721 152.51 106.669 151.962C105.881 151.568 105.07 151.743 104.501 152.466C104.085 152.992 104.063 153.364 104.063 158.468V163.922H102.99H101.916L101.829 162.147C101.763 160.614 101.697 160.329 101.237 159.957C100.953 159.738 100.405 159.541 100.011 159.541C99.6164 159.541 99.0688 159.738 98.784 159.957C98.3241 160.329 98.2583 160.614 98.1926 162.147L98.105 163.922H97.0317H95.9584V158.489C95.9584 152.619 95.8927 152.313 94.7318 151.853C93.9433 151.568 92.8262 152.093 92.4757 152.904C92.3005 153.342 92.2348 155.05 92.2786 158.73L92.3443 163.922H91.2053H90.0444V162.301C90.0444 161.008 89.9568 160.592 89.5844 160.11C88.993 159.366 87.7883 159.322 87.0436 160.023C86.6055 160.439 86.5398 160.702 86.5398 162.213V163.922H85.4446H84.3494V159.278C84.3494 154.81 84.3275 154.612 83.8675 154.131C83.2761 153.495 82.1809 153.473 81.48 154.043C80.9543 154.459 80.9543 154.503 80.8448 160.001L80.7353 165.521L79.7496 166.134C79.202 166.462 78.5449 166.791 78.282 166.879C77.8001 167.01 77.7782 166.966 77.7782 165.586C77.7782 164.075 77.5373 163.637 76.5516 163.264C75.9164 163.024 74.7774 163.374 74.4927 163.922C74.3612 164.141 74.2736 165.214 74.2736 166.309C74.2736 168.478 74.3612 168.346 72.6965 168.653L71.8642 168.784V163.527V158.248L71.2947 157.81C70.4623 157.153 69.3891 157.197 68.8196 157.92C68.3815 158.468 68.3596 158.774 68.3596 163.834V169.178H67.1549H65.9501V167.58C65.9501 165.871 65.8625 165.652 65.1397 165.258C64.3731 164.863 63.5626 164.973 62.9931 165.564C62.5331 166.002 62.4455 166.287 62.4455 167.492C62.4455 168.259 62.4017 168.938 62.3579 168.981C62.2922 169.025 61.8103 169.047 61.2627 169.003L60.277 168.916L60.2113 163.549C60.1456 158.205 60.1456 158.183 59.6199 157.767C58.8971 157.175 57.7362 157.219 57.0791 157.898C56.5315 158.424 56.5315 158.424 56.5315 163.155C56.5315 165.74 56.5096 167.864 56.4658 167.864C56.422 167.864 55.9401 167.711 55.3925 167.514L54.3849 167.185L54.2973 164.666C54.2316 162.279 54.2097 162.125 53.684 161.731C52.4355 160.767 50.8146 161.556 50.727 163.155C50.6613 164.228 50.5079 164.294 50.0918 163.396C49.7851 162.761 49.7413 161.644 49.7413 155.379V148.107L50.4641 148.589C54.2316 151.13 61.6132 152.794 67.4834 152.466C74.1422 152.072 79.6839 150.385 83.3637 147.603L84.678 146.618H104.873H125.091V155.27ZM162.305 162.914C164.78 163.44 166.796 164.119 167.496 164.688L168.11 165.192L166.817 165.827C162.524 167.974 153.128 168.653 146.556 167.317C144.607 166.922 141.803 165.981 141.19 165.521C140.752 165.214 140.752 165.214 141.256 164.798C142.176 164.031 145.22 163.089 148.287 162.607C150.302 162.301 160.422 162.52 162.305 162.914ZM83.6923 164.907C83.977 165.214 84.1523 165.455 84.0865 165.455C84.0427 165.455 83.758 165.214 83.4732 164.907C83.1885 164.601 83.0133 164.36 83.079 164.36C83.1228 164.36 83.4075 164.601 83.6923 164.907ZM85.3351 166.55C85.5541 166.791 85.6855 166.988 85.6198 166.988C85.5541 166.988 85.3351 166.791 85.116 166.55C84.897 166.309 84.7656 166.112 84.8313 166.112C84.897 166.112 85.116 166.309 85.3351 166.55ZM128.376 166.178C128.376 166.221 128.157 166.441 127.894 166.681L127.39 167.098L127.807 166.594C128.201 166.134 128.376 166.002 128.376 166.178ZM167.584 167.755C168.241 168.412 168.723 168.959 168.657 168.959C168.614 168.959 168.022 168.412 167.365 167.755C166.708 167.098 166.226 166.55 166.292 166.55C166.336 166.55 166.927 167.098 167.584 167.755Z" fill="black"/>
<path d="M99.7259 40.0552C94.6004 40.9752 90.1977 43.2532 86.496 46.9111C85.5541 47.8311 84.7875 48.6853 84.7875 48.7948C84.7875 48.9044 85.0503 48.7729 85.4008 48.4663L85.9922 47.9406L85.4665 48.532C85.1817 48.8606 84.8532 49.0796 84.7656 49.0139C84.678 48.9701 84.4151 49.1891 84.1961 49.5177C83.9989 49.8462 83.539 50.4814 83.2104 50.8976C82.3999 51.949 80.7572 55.3003 80.2315 57.0307C79.9905 57.8192 79.3334 59.3963 78.8077 60.5353C76.683 65.0037 75.6974 68.8807 75.3907 73.7653C74.8212 83.0963 77.2963 93.6102 82.7723 105.263L83.8675 107.585L82.2028 107.957C78.8077 108.702 74.3393 109.863 72.4118 110.498C67.8558 112.031 63.4312 114.682 61.0218 117.31C57.9114 120.705 56.3124 124.538 55.5896 130.19L55.3049 132.424L54.1221 132.796C50.7708 133.826 48.0985 135.928 46.8281 138.513L46.1272 139.937L46.0614 151.108C45.9957 162.366 46.0395 163.155 46.8062 164.973C47.069 165.652 47.1566 165.696 47.5071 165.433C47.8357 165.148 47.8576 165.17 47.5947 165.499C47.3319 165.827 47.3538 165.959 47.7261 166.484C49.4346 168.85 53.1145 170.909 57.6267 171.982C63.5188 173.406 71.3604 173.143 76.8583 171.369C78.6325 170.777 81.94 169.157 83.1228 168.28L83.9989 167.645H105.53C128.42 167.645 128.07 167.667 128.464 166.66C128.529 166.462 128.595 161.293 128.595 155.182V144.055L128.026 143.529L127.456 143.003H105.421H83.3637L81.9838 144.142C80.3191 145.479 78.5449 146.464 76.4202 147.187C75.5659 147.472 74.8212 147.713 74.7993 147.713C74.7774 147.713 74.7117 145.479 74.6679 142.719L74.6022 137.746L73.9013 136.651C72.9813 135.228 71.7985 134.264 69.8271 133.366C67.6148 132.358 65.4245 131.898 62.0732 131.767L59.16 131.657V130.869C59.16 129.554 59.9485 126.203 60.6275 124.582C62.577 119.961 66.213 116.697 71.8423 114.528C74.0327 113.674 81.1733 111.747 81.3705 111.966C81.4362 112.031 81.5019 112.316 81.5019 112.601C81.5019 113.499 82.2904 115.405 83.2104 116.763C86.1017 121.034 91.8405 123.859 99.5288 124.845C106.713 125.765 114.971 124.276 119.987 121.187C120.622 120.793 120.688 120.683 120.447 120.355C120.184 120.048 120.206 120.026 120.535 120.311C120.863 120.552 121.038 120.508 121.783 119.917C124.105 118.077 126.076 115.142 126.339 113.105C126.405 112.601 126.602 112.141 126.777 112.075C127.171 111.922 131.421 112.951 134.268 113.915C136.853 114.769 140.029 116.303 141.562 117.42C142.526 118.121 142.57 118.208 142.46 118.975C142.395 119.413 141.803 121.384 141.146 123.356C137.598 134.11 136.393 144.186 138.342 146.749C138.978 147.581 139.963 147.932 142.942 148.348C145.439 148.72 150.652 149.246 151.769 149.246H152.689V153.933V158.599L150.784 158.752C146.14 159.125 141.803 160.198 139.722 161.512C137.028 163.199 136.546 166.002 138.605 167.886C142.92 171.829 158.691 172.88 166.949 169.77C170.234 168.521 171.527 167.163 171.527 164.929C171.527 163.024 169.555 161.293 166.16 160.198C163.86 159.475 162.349 159.19 158.823 158.818L156.304 158.555L156.238 153.933L156.194 149.312L158.538 149.158C163.839 148.83 168.964 147.997 169.884 147.34C171.702 146.026 171.943 141.623 170.629 134.461C170.213 132.117 168.789 126.378 168.526 125.984C168.46 125.853 168.11 126.05 167.715 126.4L167.036 127.014L167.737 126.247L168.438 125.48L167.409 122.523C166.401 119.61 166.379 119.522 166.401 116.938C166.401 112.995 167.102 110.739 170.848 102.416C173.695 96.1291 174.221 94.4863 174.243 91.7483C174.265 89.7989 174.199 89.4484 173.739 88.638C172.622 86.6885 170.541 85.5495 166.598 84.7391C163.006 84.0163 161.823 83.3591 160.969 81.6945C160.662 81.1031 160.684 81.0154 161.385 79.986C162.94 77.6422 163.116 75.3642 161.889 72.8672C160.4 69.8445 157.202 68.2893 153.215 68.6617C151.266 68.8369 149.93 69.4283 148.572 70.6987C145.855 73.2396 145.417 77.0946 147.542 80.0517L148.243 81.0373L147.849 81.8478C147.038 83.4249 145.615 84.1258 141.847 84.8486C138.101 85.5714 136.086 86.7542 135.035 88.9227C134.487 90.0179 134.465 90.2808 134.575 92.0331C134.706 94.4425 135.429 96.6329 137.861 102.065C138.868 104.343 140.051 107.103 140.489 108.22C141.256 110.169 142.241 113.324 142.066 113.324C142.022 113.324 141.299 112.995 140.489 112.579C136.984 110.827 133.633 109.731 127.697 108.395L124.061 107.563L125.112 105.285C128.42 98.2319 130.764 91.1569 131.903 84.6953C132.494 81.4097 132.713 74.3348 132.319 71.4215C131.815 67.5665 130.829 64.2809 129.033 60.4039C128.529 59.3306 127.938 57.8411 127.697 57.1183C125.638 50.5253 120.337 44.5893 114.007 41.8513C109.539 39.88 104.304 39.2229 99.7259 40.0552ZM108.378 43.757C115.869 45.3559 122.09 51.0509 124.28 58.3449C125.638 62.8571 125.594 65.9237 124.061 72.7577C123.842 73.6995 123.645 73.4148 123.01 71.312C122.243 68.6397 120.578 65.0694 119.308 63.3171C117.359 60.5572 114.971 58.6516 110.415 56.1545C106.144 53.8108 103.756 52.168 101.434 49.9338C99.8792 48.4444 99.4412 48.2034 98.5431 48.4225C97.8641 48.5977 97.6669 48.9044 95.6737 52.869C93.0233 58.1478 91.1615 61.3458 89.0587 64.3247C87.3721 66.7122 83.7799 70.6768 83.4732 70.5016C83.2323 70.3483 82.8599 68.0483 82.6847 65.7922C82.2247 59.3525 85.4227 52.168 90.592 48.0501C95.7394 43.976 102.135 42.4208 108.378 43.757ZM89.1682 44.8302C89.1682 44.8522 88.5549 45.4655 87.8102 46.1883L86.4303 47.5025L87.7445 46.1226C88.9492 44.8522 89.1682 44.655 89.1682 44.8302ZM101.172 54.4679C103.231 56.1107 104.83 57.1621 108.115 59.0021C113.328 61.9153 114.818 63.12 116.658 65.8799C117.928 67.7855 118.936 70.0854 119.724 72.911C120.294 74.8824 121.148 78.8908 121.148 79.5917C121.148 80.884 117.665 86.1409 115.015 88.8132C108.904 94.9901 102.552 95.9539 96.1337 91.6169C91.8843 88.7475 87.2188 82.1544 84.8313 75.6052L84.3713 74.3567L85.2913 73.6995C89.0368 71.1368 94.4909 63.58 98.3241 55.6508C98.9593 54.3584 99.5288 53.307 99.5945 53.307C99.6602 53.307 100.361 53.8327 101.172 54.4679ZM79.7496 70.633C79.7496 72.0787 81.5895 77.467 83.3199 81.125C84.3713 83.3153 86.5836 86.9076 86.7807 86.7104C86.8464 86.6447 87.1312 86.8638 87.4378 87.2142L87.9635 87.8056L87.3721 87.2799C86.3865 86.4038 86.6712 87.039 87.9635 88.5723C90.0882 91.1131 90.6577 92.0769 91.1615 94.0263C91.7967 96.5015 91.6872 100.532 90.9425 102.437C90.3511 103.927 88.993 105.723 88.0731 106.205L87.4159 106.533L86.5617 104.825C82.838 97.3995 79.9029 87.959 79.0706 80.6869C78.8296 78.4527 78.8953 73.1519 79.2239 71.093C79.3772 70.1511 79.7496 69.8007 79.7496 70.633ZM128.902 76.5251C128.902 80.2926 128.836 81.4754 128.398 83.8629C127.237 90.4122 125.134 96.7862 121.717 103.971C120.863 105.811 120.425 106.512 120.228 106.402C118.585 105.482 117.337 103.752 116.723 101.539C115.979 98.8452 116.329 94.2454 117.446 92.0331C117.687 91.5731 118.519 90.3903 119.33 89.4046C123.294 84.4981 126.514 78.0365 127.807 72.3634C128.026 71.4653 128.245 70.5673 128.31 70.3921C128.617 69.6035 128.88 72.3853 128.902 76.5251ZM156.764 72.692C159.37 73.9843 159.808 76.5032 157.815 78.606C156.851 79.5917 156.807 79.7012 156.895 80.665C157.136 83.2058 159.239 86.0095 161.758 87.1704C162.393 87.4552 164.167 87.959 165.7 88.2437C169.336 88.9665 170.432 89.6236 170.76 91.2007C170.848 91.6169 171.176 92.2521 171.505 92.6245L172.074 93.2816L171.395 92.6683L170.716 92.055L170.563 92.953C170.344 94.3987 169.621 96.2605 167.453 101.101C164.211 108.351 163.203 111.308 162.743 115.142C162.415 117.836 162.743 119.961 164.101 123.969C166.401 130.825 167.562 136.235 167.737 141.163L167.869 144.361L166.357 144.646C160.619 145.654 151.967 145.829 145.724 145.084C143.709 144.843 141.825 144.602 141.54 144.515L141.015 144.405L141.146 141.076C141.321 136.147 142.438 130.891 144.76 124.078C145.943 120.552 145.987 120.355 146.074 117.661C146.206 113.367 145.461 110.41 142.614 103.905C139.262 96.2386 138.824 95.2091 138.408 93.5444C137.532 90.1055 138.342 89.2513 143.336 88.2218C144.804 87.9152 146.513 87.4333 147.148 87.1485C149.579 86.0533 151.748 83.162 151.989 80.7307C152.076 79.745 152.032 79.6136 151.288 78.9346C149.01 76.7661 149.382 73.9624 152.142 72.5167C153.215 71.9472 155.449 72.0349 156.764 72.692ZM163.225 84.3448C163.51 84.6953 163.488 84.7172 163.159 84.4324C162.94 84.2791 162.765 84.1039 162.765 84.0601C162.765 83.8848 162.94 83.9944 163.225 84.3448ZM164.758 85.8781C165.043 86.2286 165.021 86.2505 164.693 85.9657C164.474 85.8124 164.298 85.6371 164.298 85.5933C164.298 85.4181 164.474 85.5276 164.758 85.8781ZM166.182 87.3018L166.817 88.0247L166.117 87.3895C165.437 86.7762 165.284 86.6009 165.459 86.6009C165.503 86.6009 165.81 86.9295 166.182 87.3018ZM89.1682 88.9008C89.453 89.2075 89.6282 89.4484 89.5625 89.4484C89.5187 89.4484 89.234 89.2075 88.9492 88.9008C88.6645 88.5942 88.4892 88.3532 88.5549 88.3532C88.5987 88.3532 88.8835 88.5942 89.1682 88.9008ZM91.0301 90.7627C91.2491 91.0036 91.3805 91.2007 91.3148 91.2007C91.2491 91.2007 91.0301 91.0036 90.811 90.7627C90.592 90.5217 90.4606 90.3246 90.5263 90.3246C90.592 90.3246 90.811 90.5217 91.0301 90.7627ZM92.7824 92.515C93.0014 92.7559 93.1328 92.953 93.0671 92.953C93.0014 92.953 92.7824 92.7559 92.5633 92.515C92.3443 92.274 92.2129 92.0769 92.2786 92.0769C92.3443 92.0769 92.5633 92.274 92.7824 92.515ZM173.06 94.1578C173.345 94.4644 173.52 94.7054 173.454 94.7054C173.41 94.7054 173.126 94.4644 172.841 94.1578C172.556 93.8511 172.381 93.6102 172.447 93.6102C172.491 93.6102 172.775 93.8511 173.06 94.1578ZM94.5347 94.2673C94.7537 94.5082 94.8852 94.7054 94.8194 94.7054C94.7537 94.7054 94.5347 94.5082 94.3157 94.2673C94.0966 94.0263 93.9652 93.8292 94.0309 93.8292C94.0966 93.8292 94.3157 94.0263 94.5347 94.2673ZM100.361 97.4433C103.778 98.2757 107.765 97.7938 111.072 96.1291C111.904 95.7129 112.627 95.3625 112.671 95.3625C112.715 95.3625 112.715 96.37 112.649 97.5967L112.562 99.8528L113.175 99.3052L113.81 98.7576L113.328 99.3271C112.693 100.028 112.693 100.817 113.284 102.722C114.007 105.044 114.686 106.205 116.285 107.804C117.797 109.337 119.089 109.994 121.871 110.739C122.856 111.002 122.9 111.046 122.9 111.79C122.878 114.068 120.359 117.003 116.877 118.756C115.102 119.632 111.664 120.683 109.013 121.121C106.078 121.603 99.7916 121.45 97.0536 120.793C89.9349 119.128 85.0722 115.426 85.0065 111.659C85.0065 111.024 85.0722 110.958 85.8389 110.805C86.2769 110.717 87.4378 110.345 88.4016 109.994C92.8043 108.286 95.5423 103.248 95.2575 97.3338L95.148 95.231L96.966 96.151C97.9736 96.6548 99.5069 97.2462 100.361 97.4433ZM115.234 97.4214C115.234 97.4652 115.059 97.6405 114.861 97.7938C114.511 98.0785 114.489 98.0566 114.774 97.7062C115.059 97.3557 115.234 97.2462 115.234 97.4214ZM119.067 118.8C119.286 119.041 119.417 119.238 119.352 119.238C119.286 119.238 119.067 119.041 118.848 118.8C118.629 118.559 118.498 118.362 118.563 118.362C118.629 118.362 118.848 118.559 119.067 118.8ZM92.4538 120.18C92.4538 120.223 92.2348 120.442 91.9719 120.683L91.4681 121.1L91.8843 120.596C92.2786 120.136 92.4538 120.004 92.4538 120.18ZM166.708 127.408C166.708 127.452 166.445 127.714 166.117 128.021L165.503 128.547L166.029 127.934C166.533 127.386 166.708 127.233 166.708 127.408ZM65.7311 135.797C71.5137 137.111 72.7842 140.265 68.2501 142.018C67.1549 142.434 66.4977 142.543 64.4169 142.543C61.6132 142.565 60.4085 142.302 59.379 141.448C58.8752 141.01 58.7219 140.703 58.7219 140.134C58.7219 138.535 56.8819 137.703 55.7649 138.82C55.1296 139.455 54.9325 140.813 55.0639 144.164C55.1077 145.522 55.0639 146.683 54.9763 146.749C54.6697 146.924 52.7421 145.829 51.6469 144.865C49.807 143.244 49.3032 141.536 50.1575 139.871C51.6907 136.914 56.5972 135.074 62.2265 135.359C63.3655 135.425 64.9426 135.6 65.7311 135.797ZM70.988 146.705V148.545L69.5424 148.72C67.6586 148.917 61.8541 148.698 60.1018 148.37L58.7219 148.107V146.683C58.7219 145.413 58.7657 145.281 59.1161 145.413C61.8979 146.486 66.5635 146.42 69.7833 145.238C70.2652 145.062 70.7252 144.909 70.8347 144.887C70.9223 144.887 70.988 145.698 70.988 146.705ZM125.091 155.27V163.922H122.243H119.396V158.38C119.374 152.444 119.352 152.313 118.235 151.896C117.556 151.633 117.074 151.765 116.395 152.378C115.891 152.816 115.891 152.904 115.891 158.38V163.922H114.686H113.482V162.257C113.482 161.359 113.394 160.417 113.262 160.198C112.978 159.65 111.839 159.3 111.204 159.541C110.284 159.891 109.977 160.592 109.977 162.323V163.922H108.838H107.677L107.743 158.73C107.808 153.057 107.721 152.51 106.669 151.962C105.881 151.568 105.07 151.743 104.501 152.466C104.085 152.992 104.063 153.364 104.063 158.468V163.922H102.99H101.916L101.829 162.147C101.763 160.614 101.697 160.329 101.237 159.957C100.953 159.738 100.405 159.541 100.011 159.541C99.6164 159.541 99.0688 159.738 98.784 159.957C98.3241 160.329 98.2583 160.614 98.1926 162.147L98.105 163.922H97.0317H95.9584V158.489C95.9584 152.619 95.8927 152.313 94.7318 151.853C93.9433 151.568 92.8262 152.093 92.4757 152.904C92.3005 153.342 92.2348 155.05 92.2786 158.73L92.3443 163.922H91.2053H90.0444V162.301C90.0444 161.008 89.9568 160.592 89.5844 160.11C88.993 159.366 87.7883 159.322 87.0436 160.023C86.6055 160.439 86.5398 160.702 86.5398 162.213V163.922H85.4446H84.3494V159.278C84.3494 154.81 84.3275 154.612 83.8675 154.131C83.2761 153.495 82.1809 153.473 81.48 154.043C80.9543 154.459 80.9543 154.503 80.8448 160.001L80.7353 165.521L79.7496 166.134C79.202 166.462 78.5449 166.791 78.282 166.879C77.8001 167.01 77.7782 166.966 77.7782 165.586C77.7782 164.075 77.5373 163.637 76.5516 163.264C75.9164 163.024 74.7774 163.374 74.4927 163.922C74.3612 164.141 74.2736 165.214 74.2736 166.309C74.2736 168.478 74.3612 168.346 72.6965 168.653L71.8642 168.784V163.527V158.248L71.2947 157.81C70.4623 157.153 69.3891 157.197 68.8196 157.92C68.3815 158.468 68.3596 158.774 68.3596 163.834V169.178H67.1549H65.9501V167.58C65.9501 165.871 65.8625 165.652 65.1397 165.258C64.3731 164.863 63.5626 164.973 62.9931 165.564C62.5331 166.002 62.4455 166.287 62.4455 167.492C62.4455 168.259 62.4017 168.938 62.3579 168.981C62.2922 169.025 61.8103 169.047 61.2627 169.003L60.277 168.916L60.2113 163.549C60.1456 158.205 60.1456 158.183 59.6199 157.767C58.8971 157.175 57.7362 157.219 57.0791 157.898C56.5315 158.424 56.5315 158.424 56.5315 163.155C56.5315 165.74 56.5096 167.864 56.4658 167.864C56.422 167.864 55.9401 167.711 55.3925 167.514L54.3849 167.185L54.2973 164.666C54.2316 162.279 54.2097 162.125 53.684 161.731C52.4355 160.767 50.8146 161.556 50.727 163.155C50.6613 164.228 50.5079 164.294 50.0918 163.396C49.7851 162.761 49.7413 161.644 49.7413 155.379V148.107L50.4641 148.589C54.2316 151.13 61.6132 152.794 67.4834 152.466C74.1422 152.072 79.6839 150.385 83.3637 147.603L84.678 146.618H104.873H125.091V155.27ZM162.305 162.914C164.78 163.44 166.796 164.119 167.496 164.688L168.11 165.192L166.817 165.827C162.524 167.974 153.128 168.653 146.556 167.317C144.607 166.922 141.803 165.981 141.19 165.521C140.752 165.214 140.752 165.214 141.256 164.798C142.176 164.031 145.22 163.089 148.287 162.607C150.302 162.301 160.422 162.52 162.305 162.914ZM83.6923 164.907C83.977 165.214 84.1523 165.455 84.0865 165.455C84.0427 165.455 83.758 165.214 83.4732 164.907C83.1885 164.601 83.0133 164.36 83.079 164.36C83.1228 164.36 83.4075 164.601 83.6923 164.907ZM85.3351 166.55C85.5541 166.791 85.6855 166.988 85.6198 166.988C85.5541 166.988 85.3351 166.791 85.116 166.55C84.897 166.309 84.7656 166.112 84.8313 166.112C84.897 166.112 85.116 166.309 85.3351 166.55ZM128.376 166.178C128.376 166.221 128.157 166.441 127.894 166.681L127.39 167.098L127.807 166.594C128.201 166.134 128.376 166.002 128.376 166.178ZM167.584 167.755C168.241 168.412 168.723 168.959 168.657 168.959C168.614 168.959 168.022 168.412 167.365 167.755C166.708 167.098 166.226 166.55 166.292 166.55C166.336 166.55 166.927 167.098 167.584 167.755Z" stroke="black" stroke-width="1.64122" mask="url(#path-1-outside-1_735_1065)"/>
<path d="M107.801 86.0254L107.924 85.8818L108.449 85.2686L108.451 85.2666C108.925 84.7055 109.149 84.056 109.064 83.4375C108.979 82.8122 108.585 82.2839 107.955 81.9668C107.647 81.8057 107.215 81.7186 106.587 81.666C105.947 81.6125 105.051 81.5908 103.779 81.5908H100.253L100.132 81.7158L99.542 82.3291V82.3281C99.1219 82.7605 98.8662 83.2479 98.8516 83.7803C98.837 84.3124 99.0651 84.814 99.46 85.2705L99.9844 85.8818L100.107 86.0254H107.801Z" fill="black" stroke="black" stroke-width="0.820611"/>
<path d="M40.9644 104.342C42.7315 105.237 44.8759 105.242 46.7935 104.073L47.1733 103.824L47.1753 103.823C47.7291 103.43 48.1898 102.937 49.064 101.631C49.9361 100.328 51.2455 98.1772 53.4888 94.4348V94.4338C54.4517 92.8253 55.3377 91.3652 55.9907 90.3079C56.3022 89.8035 56.5603 89.3923 56.7476 89.1008C56.7541 89.1111 56.7613 89.1214 56.7681 89.1321C56.985 89.4752 57.2924 89.9733 57.6685 90.5901C58.4204 91.8233 59.4433 93.5255 60.5601 95.3977C61.6787 97.2841 62.7866 99.0889 63.6733 100.484C64.1167 101.181 64.5058 101.778 64.814 102.232C65.1134 102.673 65.3572 103.008 65.5005 103.158L65.5063 103.166C66.7399 104.4 68.0481 104.973 69.7837 104.973C72.6014 104.973 74.7048 103.223 75.6157 100.948C76.5257 98.674 76.2578 95.8519 74.3413 93.6682L74.3394 93.6663C73.2288 92.4142 71.5386 91.6663 69.7837 91.6663C68.9386 91.6663 68.1919 91.8001 67.481 92.1047C66.774 92.4077 66.122 92.8715 65.4536 93.5051C65.2338 93.7067 65.0299 93.8892 64.8677 94.0334C64.7513 93.8259 64.6038 93.5644 64.4419 93.2913L64.4409 93.2922C64.0966 92.6528 63.0703 90.9477 62.1372 89.4504C61.2183 87.9407 60.1925 86.2164 59.8452 85.6086L59.8442 85.6096L59.3472 84.7053L63.3452 78.0286L66.3735 72.9709C67.1879 71.6073 67.7443 70.6743 67.853 70.5002L67.8589 70.4905C68.0757 70.1219 68.5174 69.3712 68.8081 68.8127C69.0346 68.3921 69.3943 67.7786 69.7202 67.2756L70.0288 66.8206L70.0366 66.8098L70.2036 66.5481C70.5728 65.9407 70.7891 65.3556 70.8149 64.8098C70.8455 64.1651 70.6073 63.6056 70.1167 63.1829C69.8662 62.9665 69.6248 62.7899 69.3296 62.7161C69.0355 62.6426 68.7445 62.6848 68.4253 62.7639V62.7629C67.8869 62.8814 67.4918 62.9596 67.0884 63.3811C66.9054 63.5723 66.7262 63.8265 66.5151 64.1614C66.3026 64.4987 66.0436 64.9418 65.7056 65.5198V65.5208C64.5461 67.4896 63.8244 68.7142 61.9868 71.7112L61.9829 71.7161C61.6348 72.3036 60.2522 74.6089 58.938 76.843L58.937 76.844C58.2815 77.9693 57.6702 78.9853 57.2153 79.718C57.0458 79.9911 56.8959 80.2217 56.7769 80.4055C56.7579 80.3759 56.7379 80.345 56.7173 80.3127C56.4764 79.9346 56.1343 79.3859 55.7173 78.7063C54.8835 77.3476 53.7515 75.4709 52.5259 73.4026L52.5249 73.4006C50.063 69.3046 47.7215 65.3688 47.2681 64.6418C47.0477 64.2707 46.7777 63.8951 46.5171 63.5881C46.2695 63.2965 45.9899 63.0176 45.7505 62.8899L45.7417 62.884C45.4099 62.7181 45.1341 62.5844 44.8452 62.5676C44.5464 62.5503 44.2771 62.6603 43.9771 62.7844V62.7854C43.5778 62.9445 43.2265 63.2684 42.978 63.6194C42.7296 63.9703 42.5406 64.4082 42.5405 64.8284C42.5405 64.9014 42.5593 64.9637 42.5659 64.9856C42.5758 65.0181 42.5888 65.0509 42.6011 65.0813C42.6259 65.1426 42.6595 65.2169 42.6997 65.3C42.781 65.468 42.8993 65.6946 43.0474 65.97C43.3442 66.5218 43.7721 67.2857 44.2983 68.2053C45.3515 70.0455 46.8039 72.518 48.4038 75.1809C50.0025 77.8417 51.4535 80.2728 52.5044 82.0461C53.0298 82.9328 53.455 83.6546 53.7485 84.1584C53.8953 84.4103 54.0083 84.6067 54.0845 84.7415C54.0907 84.7524 54.0964 84.7636 54.1021 84.7737C54.1006 84.7765 54.0987 84.7796 54.0972 84.7825C54.0355 84.8986 53.9447 85.0625 53.8296 85.2629C53.5995 85.6636 53.2785 86.2019 52.9194 86.7786L52.9146 86.7864C52.2149 87.9671 50.8798 90.1777 49.939 91.7092V91.7102L48.5298 94.0217L48.2847 93.7249L48.2856 93.7239C47.2572 92.4564 45.4478 91.6663 43.7397 91.6663C43.1179 91.6663 42.6824 91.6652 42.2612 91.8528C42.1667 91.8949 42.0746 91.9466 41.981 92.0071C41.8823 91.935 41.7811 91.9185 41.7261 91.9163C41.6097 91.9115 41.4977 91.9483 41.4312 91.9719C41.2761 92.0269 41.0657 92.1293 40.8169 92.259V92.2581C39.7416 92.8017 38.8118 93.8763 38.187 95.0774C37.5617 96.2796 37.2085 97.6715 37.3521 98.8928C37.652 101.443 39.0833 103.39 40.9644 104.342ZM44.6362 100.197C43.9675 100.755 43.3007 100.732 42.7944 100.379C42.261 100.007 41.8286 99.2082 41.8286 98.0784C41.8286 97.6602 41.8576 97.4517 41.9302 97.2805C42.0038 97.1069 42.1396 96.9295 42.4526 96.6165C42.9 96.1691 43.2542 96.0048 43.563 95.9973C43.8743 95.9899 44.2479 96.1393 44.7397 96.5696L44.7417 96.5706C45.8543 97.5348 45.8344 99.1876 44.6362 100.196V100.197ZM69.7837 100.648C69.3909 100.648 68.9204 100.391 68.5288 99.925C68.143 99.4664 67.894 98.8729 67.894 98.3196C67.894 97.9757 68.0113 97.5605 68.2173 97.178C68.3983 96.8418 68.6288 96.565 68.8628 96.3948L68.9634 96.3284L68.9771 96.3206C69.3201 96.0986 69.5459 96.0223 69.7476 96.0168C69.9542 96.0114 70.1979 96.0786 70.5815 96.2756C71.2113 96.6104 71.6733 97.3957 71.6733 98.3196C71.6733 98.9268 71.4329 99.5195 71.063 99.9583C70.6902 100.4 70.2215 100.648 69.7837 100.648Z" fill="black" stroke="black" stroke-width="0.820611"/>
</svg>
