<svg width="211" height="211" viewBox="0 0 211 211" fill="none" xmlns="http://www.w3.org/2000/svg">
<path d="M94.1953 78.0847C98.4118 80.1595 104.717 80.0298 109.041 77.8367L109.044 77.8347C112.663 75.963 116.276 72.2316 117.785 68.7771C118.584 66.9886 118.937 64.3845 118.898 61.7976C118.86 59.208 118.428 56.5653 117.604 54.6941L117.602 54.6892H117.601C113.973 46.7474 103.92 42.2368 95.9463 45.0623L95.9443 45.0632C88.5189 47.7464 83.6349 54.4327 83.6348 62.1316C83.6348 68.4147 88.0774 75.1506 94.1953 78.0847ZM113.196 55.7195C119.127 67.4673 107.396 79.5011 95.4629 73.9207H95.4619C90.5596 71.6467 88.1072 66.7682 88.1221 61.8503C88.137 56.9323 90.6194 52.0362 95.5244 49.7312H95.5234C97.271 48.9157 98.9066 48.671 102.175 48.7917L102.841 48.8279C104.321 48.9162 105.306 49.0387 106.145 49.28C107.092 49.5528 107.875 49.9844 108.992 50.739C110.643 51.9203 112.126 53.638 113.196 55.7195Z" fill="black" stroke="black" stroke-width="0.820611"/>
<mask id="path-2-outside-1_735_1157" maskUnits="userSpaceOnUse" x="46.4219" y="50.1729" width="121" height="120" fill="black">
<rect fill="white" x="46.4219" y="50.1729" width="121" height="120"/>
<path d="M123.583 52.3539C123.338 52.5372 123.155 57.5483 123.155 63.4149C123.155 73.9869 123.155 74.048 121.688 75.2091C120.711 76.0036 119.122 79.1813 117.044 84.4979C115.333 88.8979 113.683 92.7478 113.5 92.9311C113.255 93.1756 110.261 92.5034 106.839 91.4645L100.605 89.5701L99.9942 87.0645C98.1609 79.7924 91.011 76.9202 83.9222 80.648C81.9056 81.6868 81.2945 81.8091 81.05 81.1368C80.9278 80.7091 79.6445 79.1813 78.1778 77.7758C72.0668 71.8481 62.778 72.2147 57.217 78.5702C54.7115 81.4424 54.7115 81.4424 50.7393 97.2089C46.7671 113.098 46.5227 116.153 49.1504 120.675C52.0226 125.686 57.8281 128.803 62.9003 128.131L65.4669 127.764L66.2613 130.758C67.2391 134.669 71.089 142.43 73.9001 146.342C75.1223 147.992 76.1001 149.58 76.1001 149.825C76.1001 150.008 72.2501 150.314 67.6058 150.436C60.1503 150.619 58.867 150.803 57.4003 151.903C54.2837 154.164 53.2448 156.18 53.2448 159.725C53.1837 163.33 54.2226 165.347 57.4003 167.669C58.9892 168.891 59.967 168.952 79.6445 169.136C93.0887 169.258 101.033 169.075 102.5 168.647C105.25 167.852 108.305 164.491 108.855 161.619C109.466 158.197 107.816 154.836 102.072 148.175C99.2609 144.814 96.9387 141.88 96.8776 141.636C96.8776 141.269 108.305 133.203 108.794 133.203C108.916 133.203 111.116 139.681 113.683 147.686C116.25 155.63 118.816 162.78 119.305 163.575C120.527 165.408 124.377 167.425 126.638 167.425C131.283 167.425 135.988 162.902 135.988 158.502C135.988 157.403 132.138 146.036 127.372 133.142L118.755 109.798L120.344 108.514C121.505 107.659 123.644 103.32 127.433 94.52C130.488 87.5534 132.933 81.4424 132.933 80.9535C132.933 80.3424 133.605 80.0369 134.949 80.0369C137.76 80.0369 138.433 79.1202 138.433 75.0258C138.433 71.5425 138.494 71.4814 140.144 71.4814C141.06 71.4814 142.16 71.787 142.466 72.0925C142.894 72.5203 147.294 72.6425 154.382 72.5814L165.627 72.3981V65.0648V57.7316L154.382 57.5483C147.294 57.4872 142.894 57.6094 142.466 58.0371C142.16 58.3427 141.06 58.6483 140.144 58.6483C138.555 58.6483 138.433 58.4649 138.433 56.0205C138.433 54.5539 138.127 53.0872 137.699 52.6594C136.905 51.865 124.316 51.5595 123.583 52.3539ZM134.766 65.9815V76.3702H133.055C132.077 76.3702 130.794 75.8202 130.183 75.148C129.572 74.4758 128.594 73.9258 127.922 73.9258C126.883 73.9258 126.822 73.2536 126.822 64.7593V55.5927H130.794H134.766V65.9815ZM162.754 65.1871L162.938 69.6481H154.321H145.766V65.0648V60.4204L154.199 60.6038L162.571 60.7871L162.754 65.1871ZM142.099 65.0648C142.099 68.3648 142.099 68.4259 140.266 68.4259C138.433 68.4259 138.433 68.3648 138.433 65.0648C138.433 61.7649 138.433 61.7038 140.266 61.7038C142.099 61.7038 142.099 61.7649 142.099 65.0648ZM74.6334 79.1813C75.7945 80.1591 77.2612 81.6868 77.8112 82.6035C78.7278 84.1312 78.6667 84.2535 76.2223 87.1868C72.1279 92.0756 68.2169 98.9199 66.5058 104.175C65.2225 108.148 64.8558 110.531 64.7336 116.703L64.4891 124.342L61.6169 124.525C56.4837 124.77 51.656 120.859 50.6782 115.542C50.3115 113.892 51.106 109.859 53.7948 98.981C57.5837 83.459 58.0114 82.4202 60.6392 79.9146C63.0836 77.5924 64.9169 76.9813 68.8891 77.1647C71.7001 77.348 72.8612 77.7147 74.6334 79.1813ZM128.288 77.9591C128.838 78.448 129.266 79.4869 129.266 80.2202C129.327 82.6035 119.305 105.214 117.961 105.825C117.044 106.253 113.622 105.275 104.333 102.037C90.3388 97.2089 89.8499 96.9644 88.9333 95.2533C88.3833 94.2756 88.4444 93.6645 89.2388 92.5034C89.7888 91.6478 90.6443 90.7923 91.0721 90.6701C91.561 90.4867 96.8776 91.8311 102.928 93.7256C108.916 95.62 114.294 97.1477 114.783 97.1477C115.333 97.1477 116.861 94.0311 119.183 88.1034C121.138 83.1535 123.155 78.6313 123.644 78.0202C124.805 76.7369 127.005 76.6758 128.288 77.9591ZM92.4776 82.7257C94.311 83.7035 95.8998 85.2923 96.4498 86.8201C96.7554 87.7368 96.3276 87.7979 93.211 87.5534C89.7277 87.1868 89.5444 87.2479 87.4055 89.3867C83.1278 93.6645 85.1444 99.0422 91.9888 101.364L95.3498 102.464L95.2276 108.82C95.1054 112.303 94.9221 116.031 94.7387 117.131C94.4943 118.597 94.6776 119.209 95.472 119.636C96.3276 120.125 98.5276 119.086 105.739 114.87C110.75 111.875 114.905 109.492 114.966 109.553C115.027 109.614 119 120.247 123.827 133.203C129.205 147.808 132.505 157.525 132.505 158.869C132.444 161.68 130.06 163.758 126.883 163.758C122.727 163.758 122.299 162.964 116.494 145.425C111.422 130.025 111.055 129.231 109.65 129.292C107.572 129.353 92.5999 139.681 92.5999 141.025C92.5999 141.636 95.2887 145.303 98.5887 149.214C105.127 156.853 105.433 157.341 105.433 160.397C105.433 161.925 104.944 162.841 103.539 164.002L101.644 165.591H80.6222H59.5392L58.0725 164.002C54.5893 160.275 57.3392 154.041 62.4725 153.919C78.4223 153.369 81.9056 153.064 82.0889 151.964C82.2111 151.353 81.2945 149.764 79.95 148.297C74.6334 142.553 70.7224 135.158 69.0113 127.825C67.7891 122.509 67.7891 113.22 69.0113 107.903C71.4557 97.6366 80.5 85.2312 87.4666 82.7868C90.461 81.6868 90.5221 81.6868 92.4776 82.7257ZM105.616 106.009C108.183 106.925 110.2 107.903 110.016 108.148C109.65 108.698 99.1387 114.87 98.5276 114.87C98.3442 114.87 98.3442 113.281 98.4665 111.325C98.9553 105.398 99.322 103.748 100.116 104.114C100.544 104.237 102.989 105.092 105.616 106.009Z"/>
</mask>
<path d="M123.583 52.3539C123.338 52.5372 123.155 57.5483 123.155 63.4149C123.155 73.9869 123.155 74.048 121.688 75.2091C120.711 76.0036 119.122 79.1813 117.044 84.4979C115.333 88.8979 113.683 92.7478 113.5 92.9311C113.255 93.1756 110.261 92.5034 106.839 91.4645L100.605 89.5701L99.9942 87.0645C98.1609 79.7924 91.011 76.9202 83.9222 80.648C81.9056 81.6868 81.2945 81.8091 81.05 81.1368C80.9278 80.7091 79.6445 79.1813 78.1778 77.7758C72.0668 71.8481 62.778 72.2147 57.217 78.5702C54.7115 81.4424 54.7115 81.4424 50.7393 97.2089C46.7671 113.098 46.5227 116.153 49.1504 120.675C52.0226 125.686 57.8281 128.803 62.9003 128.131L65.4669 127.764L66.2613 130.758C67.2391 134.669 71.089 142.43 73.9001 146.342C75.1223 147.992 76.1001 149.58 76.1001 149.825C76.1001 150.008 72.2501 150.314 67.6058 150.436C60.1503 150.619 58.867 150.803 57.4003 151.903C54.2837 154.164 53.2448 156.18 53.2448 159.725C53.1837 163.33 54.2226 165.347 57.4003 167.669C58.9892 168.891 59.967 168.952 79.6445 169.136C93.0887 169.258 101.033 169.075 102.5 168.647C105.25 167.852 108.305 164.491 108.855 161.619C109.466 158.197 107.816 154.836 102.072 148.175C99.2609 144.814 96.9387 141.88 96.8776 141.636C96.8776 141.269 108.305 133.203 108.794 133.203C108.916 133.203 111.116 139.681 113.683 147.686C116.25 155.63 118.816 162.78 119.305 163.575C120.527 165.408 124.377 167.425 126.638 167.425C131.283 167.425 135.988 162.902 135.988 158.502C135.988 157.403 132.138 146.036 127.372 133.142L118.755 109.798L120.344 108.514C121.505 107.659 123.644 103.32 127.433 94.52C130.488 87.5534 132.933 81.4424 132.933 80.9535C132.933 80.3424 133.605 80.0369 134.949 80.0369C137.76 80.0369 138.433 79.1202 138.433 75.0258C138.433 71.5425 138.494 71.4814 140.144 71.4814C141.06 71.4814 142.16 71.787 142.466 72.0925C142.894 72.5203 147.294 72.6425 154.382 72.5814L165.627 72.3981V65.0648V57.7316L154.382 57.5483C147.294 57.4872 142.894 57.6094 142.466 58.0371C142.16 58.3427 141.06 58.6483 140.144 58.6483C138.555 58.6483 138.433 58.4649 138.433 56.0205C138.433 54.5539 138.127 53.0872 137.699 52.6594C136.905 51.865 124.316 51.5595 123.583 52.3539ZM134.766 65.9815V76.3702H133.055C132.077 76.3702 130.794 75.8202 130.183 75.148C129.572 74.4758 128.594 73.9258 127.922 73.9258C126.883 73.9258 126.822 73.2536 126.822 64.7593V55.5927H130.794H134.766V65.9815ZM162.754 65.1871L162.938 69.6481H154.321H145.766V65.0648V60.4204L154.199 60.6038L162.571 60.7871L162.754 65.1871ZM142.099 65.0648C142.099 68.3648 142.099 68.4259 140.266 68.4259C138.433 68.4259 138.433 68.3648 138.433 65.0648C138.433 61.7649 138.433 61.7038 140.266 61.7038C142.099 61.7038 142.099 61.7649 142.099 65.0648ZM74.6334 79.1813C75.7945 80.1591 77.2612 81.6868 77.8112 82.6035C78.7278 84.1312 78.6667 84.2535 76.2223 87.1868C72.1279 92.0756 68.2169 98.9199 66.5058 104.175C65.2225 108.148 64.8558 110.531 64.7336 116.703L64.4891 124.342L61.6169 124.525C56.4837 124.77 51.656 120.859 50.6782 115.542C50.3115 113.892 51.106 109.859 53.7948 98.981C57.5837 83.459 58.0114 82.4202 60.6392 79.9146C63.0836 77.5924 64.9169 76.9813 68.8891 77.1647C71.7001 77.348 72.8612 77.7147 74.6334 79.1813ZM128.288 77.9591C128.838 78.448 129.266 79.4869 129.266 80.2202C129.327 82.6035 119.305 105.214 117.961 105.825C117.044 106.253 113.622 105.275 104.333 102.037C90.3388 97.2089 89.8499 96.9644 88.9333 95.2533C88.3833 94.2756 88.4444 93.6645 89.2388 92.5034C89.7888 91.6478 90.6443 90.7923 91.0721 90.6701C91.561 90.4867 96.8776 91.8311 102.928 93.7256C108.916 95.62 114.294 97.1477 114.783 97.1477C115.333 97.1477 116.861 94.0311 119.183 88.1034C121.138 83.1535 123.155 78.6313 123.644 78.0202C124.805 76.7369 127.005 76.6758 128.288 77.9591ZM92.4776 82.7257C94.311 83.7035 95.8998 85.2923 96.4498 86.8201C96.7554 87.7368 96.3276 87.7979 93.211 87.5534C89.7277 87.1868 89.5444 87.2479 87.4055 89.3867C83.1278 93.6645 85.1444 99.0422 91.9888 101.364L95.3498 102.464L95.2276 108.82C95.1054 112.303 94.9221 116.031 94.7387 117.131C94.4943 118.597 94.6776 119.209 95.472 119.636C96.3276 120.125 98.5276 119.086 105.739 114.87C110.75 111.875 114.905 109.492 114.966 109.553C115.027 109.614 119 120.247 123.827 133.203C129.205 147.808 132.505 157.525 132.505 158.869C132.444 161.68 130.06 163.758 126.883 163.758C122.727 163.758 122.299 162.964 116.494 145.425C111.422 130.025 111.055 129.231 109.65 129.292C107.572 129.353 92.5999 139.681 92.5999 141.025C92.5999 141.636 95.2887 145.303 98.5887 149.214C105.127 156.853 105.433 157.341 105.433 160.397C105.433 161.925 104.944 162.841 103.539 164.002L101.644 165.591H80.6222H59.5392L58.0725 164.002C54.5893 160.275 57.3392 154.041 62.4725 153.919C78.4223 153.369 81.9056 153.064 82.0889 151.964C82.2111 151.353 81.2945 149.764 79.95 148.297C74.6334 142.553 70.7224 135.158 69.0113 127.825C67.7891 122.509 67.7891 113.22 69.0113 107.903C71.4557 97.6366 80.5 85.2312 87.4666 82.7868C90.461 81.6868 90.5221 81.6868 92.4776 82.7257ZM105.616 106.009C108.183 106.925 110.2 107.903 110.016 108.148C109.65 108.698 99.1387 114.87 98.5276 114.87C98.3442 114.87 98.3442 113.281 98.4665 111.325C98.9553 105.398 99.322 103.748 100.116 104.114C100.544 104.237 102.989 105.092 105.616 106.009Z" fill="black"/>
<path d="M123.583 52.3539C123.338 52.5372 123.155 57.5483 123.155 63.4149C123.155 73.9869 123.155 74.048 121.688 75.2091C120.711 76.0036 119.122 79.1813 117.044 84.4979C115.333 88.8979 113.683 92.7478 113.5 92.9311C113.255 93.1756 110.261 92.5034 106.839 91.4645L100.605 89.5701L99.9942 87.0645C98.1609 79.7924 91.011 76.9202 83.9222 80.648C81.9056 81.6868 81.2945 81.8091 81.05 81.1368C80.9278 80.7091 79.6445 79.1813 78.1778 77.7758C72.0668 71.8481 62.778 72.2147 57.217 78.5702C54.7115 81.4424 54.7115 81.4424 50.7393 97.2089C46.7671 113.098 46.5227 116.153 49.1504 120.675C52.0226 125.686 57.8281 128.803 62.9003 128.131L65.4669 127.764L66.2613 130.758C67.2391 134.669 71.089 142.43 73.9001 146.342C75.1223 147.992 76.1001 149.58 76.1001 149.825C76.1001 150.008 72.2501 150.314 67.6058 150.436C60.1503 150.619 58.867 150.803 57.4003 151.903C54.2837 154.164 53.2448 156.18 53.2448 159.725C53.1837 163.33 54.2226 165.347 57.4003 167.669C58.9892 168.891 59.967 168.952 79.6445 169.136C93.0887 169.258 101.033 169.075 102.5 168.647C105.25 167.852 108.305 164.491 108.855 161.619C109.466 158.197 107.816 154.836 102.072 148.175C99.2609 144.814 96.9387 141.88 96.8776 141.636C96.8776 141.269 108.305 133.203 108.794 133.203C108.916 133.203 111.116 139.681 113.683 147.686C116.25 155.63 118.816 162.78 119.305 163.575C120.527 165.408 124.377 167.425 126.638 167.425C131.283 167.425 135.988 162.902 135.988 158.502C135.988 157.403 132.138 146.036 127.372 133.142L118.755 109.798L120.344 108.514C121.505 107.659 123.644 103.32 127.433 94.52C130.488 87.5534 132.933 81.4424 132.933 80.9535C132.933 80.3424 133.605 80.0369 134.949 80.0369C137.76 80.0369 138.433 79.1202 138.433 75.0258C138.433 71.5425 138.494 71.4814 140.144 71.4814C141.06 71.4814 142.16 71.787 142.466 72.0925C142.894 72.5203 147.294 72.6425 154.382 72.5814L165.627 72.3981V65.0648V57.7316L154.382 57.5483C147.294 57.4872 142.894 57.6094 142.466 58.0371C142.16 58.3427 141.06 58.6483 140.144 58.6483C138.555 58.6483 138.433 58.4649 138.433 56.0205C138.433 54.5539 138.127 53.0872 137.699 52.6594C136.905 51.865 124.316 51.5595 123.583 52.3539ZM134.766 65.9815V76.3702H133.055C132.077 76.3702 130.794 75.8202 130.183 75.148C129.572 74.4758 128.594 73.9258 127.922 73.9258C126.883 73.9258 126.822 73.2536 126.822 64.7593V55.5927H130.794H134.766V65.9815ZM162.754 65.1871L162.938 69.6481H154.321H145.766V65.0648V60.4204L154.199 60.6038L162.571 60.7871L162.754 65.1871ZM142.099 65.0648C142.099 68.3648 142.099 68.4259 140.266 68.4259C138.433 68.4259 138.433 68.3648 138.433 65.0648C138.433 61.7649 138.433 61.7038 140.266 61.7038C142.099 61.7038 142.099 61.7649 142.099 65.0648ZM74.6334 79.1813C75.7945 80.1591 77.2612 81.6868 77.8112 82.6035C78.7278 84.1312 78.6667 84.2535 76.2223 87.1868C72.1279 92.0756 68.2169 98.9199 66.5058 104.175C65.2225 108.148 64.8558 110.531 64.7336 116.703L64.4891 124.342L61.6169 124.525C56.4837 124.77 51.656 120.859 50.6782 115.542C50.3115 113.892 51.106 109.859 53.7948 98.981C57.5837 83.459 58.0114 82.4202 60.6392 79.9146C63.0836 77.5924 64.9169 76.9813 68.8891 77.1647C71.7001 77.348 72.8612 77.7147 74.6334 79.1813ZM128.288 77.9591C128.838 78.448 129.266 79.4869 129.266 80.2202C129.327 82.6035 119.305 105.214 117.961 105.825C117.044 106.253 113.622 105.275 104.333 102.037C90.3388 97.2089 89.8499 96.9644 88.9333 95.2533C88.3833 94.2756 88.4444 93.6645 89.2388 92.5034C89.7888 91.6478 90.6443 90.7923 91.0721 90.6701C91.561 90.4867 96.8776 91.8311 102.928 93.7256C108.916 95.62 114.294 97.1477 114.783 97.1477C115.333 97.1477 116.861 94.0311 119.183 88.1034C121.138 83.1535 123.155 78.6313 123.644 78.0202C124.805 76.7369 127.005 76.6758 128.288 77.9591ZM92.4776 82.7257C94.311 83.7035 95.8998 85.2923 96.4498 86.8201C96.7554 87.7368 96.3276 87.7979 93.211 87.5534C89.7277 87.1868 89.5444 87.2479 87.4055 89.3867C83.1278 93.6645 85.1444 99.0422 91.9888 101.364L95.3498 102.464L95.2276 108.82C95.1054 112.303 94.9221 116.031 94.7387 117.131C94.4943 118.597 94.6776 119.209 95.472 119.636C96.3276 120.125 98.5276 119.086 105.739 114.87C110.75 111.875 114.905 109.492 114.966 109.553C115.027 109.614 119 120.247 123.827 133.203C129.205 147.808 132.505 157.525 132.505 158.869C132.444 161.68 130.06 163.758 126.883 163.758C122.727 163.758 122.299 162.964 116.494 145.425C111.422 130.025 111.055 129.231 109.65 129.292C107.572 129.353 92.5999 139.681 92.5999 141.025C92.5999 141.636 95.2887 145.303 98.5887 149.214C105.127 156.853 105.433 157.341 105.433 160.397C105.433 161.925 104.944 162.841 103.539 164.002L101.644 165.591H80.6222H59.5392L58.0725 164.002C54.5893 160.275 57.3392 154.041 62.4725 153.919C78.4223 153.369 81.9056 153.064 82.0889 151.964C82.2111 151.353 81.2945 149.764 79.95 148.297C74.6334 142.553 70.7224 135.158 69.0113 127.825C67.7891 122.509 67.7891 113.22 69.0113 107.903C71.4557 97.6366 80.5 85.2312 87.4666 82.7868C90.461 81.6868 90.5221 81.6868 92.4776 82.7257ZM105.616 106.009C108.183 106.925 110.2 107.903 110.016 108.148C109.65 108.698 99.1387 114.87 98.5276 114.87C98.3442 114.87 98.3442 113.281 98.4665 111.325C98.9553 105.398 99.322 103.748 100.116 104.114C100.544 104.237 102.989 105.092 105.616 106.009Z" stroke="black" stroke-width="1.64122" mask="url(#path-2-outside-1_735_1157)"/>
</svg>
