<svg width="211" height="211" viewBox="0 0 211 211" fill="none" xmlns="http://www.w3.org/2000/svg">
<path d="M119.346 35.5426C120.084 35.8528 120.692 36.1517 121.368 36.5621C121.552 36.6702 121.737 36.7783 121.927 36.8896C126.03 39.3418 129.816 42.2657 133.324 45.5036C133.904 46.0336 134.494 46.5416 135.096 47.0455C145.061 55.8002 151.598 69.2796 153.18 82.3241C153.21 83.3259 153.21 83.3259 153.6 83.661C153.64 83.2973 153.64 83.2973 153.68 82.9262C153.721 82.608 153.762 82.2898 153.803 81.9619C153.841 81.6465 153.879 81.3312 153.918 81.0062C154.17 80.0213 154.428 79.6487 155.231 79.0395C156.292 78.9068 157.057 78.9778 157.949 79.5832C158.69 80.6942 158.664 81.5622 158.493 82.8455C158.118 84.4079 157.625 85.9381 157.134 87.467C157.223 87.5567 157.313 87.6464 157.406 87.7389C157.658 87.4109 157.658 87.4109 157.915 87.0762C158.493 86.3796 158.493 86.3796 159.037 86.1077C160.08 86.0112 160.708 85.959 161.602 86.5325C162.212 87.4842 162.213 87.9822 162.027 89.0981C160.931 91.1998 158.909 92.8694 156.709 93.7027C156.401 93.798 156.092 93.8933 155.774 93.9915C157.636 96.7064 160.002 98.3979 162.692 100.219C164.498 101.441 166.281 102.696 168.063 103.952C168.87 104.52 169.681 105.079 170.501 105.626C174.045 108.012 174.045 108.012 174.804 110.031C175.118 111.653 174.851 112.964 174.088 114.411C173.184 115.661 172.094 116.499 170.794 117.303C168.648 118.706 166.557 120.385 165.561 122.808C165.364 124.008 165.384 124.916 165.952 126.003C166.591 126.563 167.123 126.877 167.872 127.26C168.846 127.781 169.529 128.253 170.022 129.291C170.463 130.898 170.527 132.722 169.707 134.209C169.158 134.957 168.608 135.694 168.008 136.401C168.123 136.549 168.237 136.696 168.355 136.848C168.504 137.043 168.653 137.237 168.807 137.437C169.029 137.726 169.029 137.726 169.256 138.02C170.125 139.279 170.025 140.641 169.911 142.11C169.556 144.033 168.324 145.428 166.921 146.731C166.475 147.016 166.024 147.292 165.561 147.547C165.654 148.687 165.993 149.57 166.479 150.588C168.117 154.102 168.574 157.369 167.295 161.093C165.376 165.508 161.587 167.332 157.387 169.1C156.407 169.465 155.531 169.602 154.485 169.611C154.23 169.614 153.974 169.616 153.711 169.619C153.298 169.621 153.298 169.621 152.876 169.623C152.588 169.624 152.301 169.626 152.004 169.627C151.392 169.63 150.78 169.632 150.169 169.633C149.25 169.635 148.332 169.644 147.414 169.652C143.593 169.671 140.001 169.376 136.26 168.594C131.511 167.698 126.611 169.195 122.608 171.742C121.829 172.353 121.115 172.982 120.411 173.677C119.726 174.349 119.25 174.706 118.292 174.852C117.443 174.733 117.443 174.733 116.661 174.155C116.084 173.373 116.084 173.373 115.88 172.609C116.461 170.14 119.209 168.388 121.249 167.121C126.298 164.215 132.329 162.767 138.074 164.266C138.996 164.485 139.922 164.597 140.863 164.698C141.072 164.721 141.281 164.744 141.496 164.767C143.883 165.005 146.268 165.076 148.666 165.091C149.169 165.096 149.673 165.106 150.177 165.119C154.348 165.232 158.006 164.606 161.335 161.866C162.765 160.32 163.491 158.455 163.464 156.357C163.251 154.564 162.527 152.829 161.704 151.234C160.935 149.722 160.707 148.148 160.94 146.46C161.465 145.115 162.129 144.423 163.267 143.554C164.738 142.503 164.738 142.503 165.386 140.889C165.353 140.187 165.353 140.187 164.861 139.746C164.672 139.618 164.482 139.49 164.287 139.357C164.089 139.221 163.891 139.084 163.687 138.943C163.051 138.535 162.407 138.143 161.755 137.76C161.212 137.217 161.212 137.217 161.093 136.163C161.119 135.29 161.151 135.11 161.755 134.43C162.568 133.956 163.387 133.521 164.238 133.12C164.813 132.846 164.813 132.846 165.561 132.323C165.561 131.964 165.561 131.605 165.561 131.236C165.186 130.971 164.808 130.709 164.415 130.471C162.983 129.518 161.42 128.018 160.94 126.342C160.528 123.064 161.082 120.684 163.119 118.011C164.802 116.041 166.808 114.142 169.129 112.953C169.977 112.562 169.977 112.562 170.096 111.768C170.124 111.554 170.153 111.339 170.183 111.118C168.149 109.608 166.107 108.113 164.015 106.684C163.839 106.564 163.664 106.443 163.482 106.319C163.11 106.065 162.737 105.81 162.364 105.555C161.207 104.762 160.053 103.966 158.901 103.167C158.677 103.013 158.452 102.859 158.221 102.7C155.516 100.819 153.424 98.7636 151.5 96.1007C151.192 95.6766 150.871 95.2618 150.549 94.8485C149.011 92.5537 149.086 90.3288 149.05 87.6396C148.849 73.4314 141.964 60.8543 132.395 50.7665C132.201 50.5612 132.007 50.3558 131.808 50.1442C129.734 48.0064 127.356 46.223 124.987 44.4289C124.807 44.292 124.627 44.155 124.442 44.014C123.328 43.1786 122.199 42.462 120.977 41.7953C120.993 41.9743 121.01 42.1534 121.027 42.3378C122.175 55.3183 121.802 68.5443 118.53 81.2143C118.461 81.4887 118.391 81.7631 118.319 82.0458C115.945 91.3168 112.606 100.128 108.221 108.643C107.616 109.826 107.026 111.017 106.433 112.206C105.019 115.037 105.019 115.037 104.378 116.306C103.834 117.383 103.298 118.464 102.763 119.546C102.642 119.789 102.521 120.033 102.396 120.283C99.2841 126.57 96.6737 132.873 94.8788 139.663C94.787 140.004 94.6952 140.344 94.6006 140.694C92.2646 150.004 93.168 160.061 97.8692 168.48C98.4302 169.352 99.0359 170.186 99.6713 171.005C100.17 171.991 100.031 172.59 99.7722 173.645C99.1721 174.428 98.636 174.692 97.6653 174.869C96.6032 174.705 96.2374 174.328 95.5935 173.489C89.5423 164.478 87.4671 153.503 89.4513 142.832C89.5369 142.41 89.6244 141.988 89.7136 141.566C89.7573 141.356 89.8011 141.145 89.8462 140.928C91.4084 133.64 94.2455 126.839 97.3255 120.09C97.4374 119.842 97.5494 119.595 97.6647 119.34C98.6121 117.247 99.6296 115.202 100.707 113.174C104.31 106.378 107.636 99.554 110.375 92.3604C110.475 92.1008 110.575 91.8412 110.678 91.5737C114.63 81.2293 116.9 69.3547 116.954 58.2564C116.956 57.9943 116.958 57.7322 116.96 57.4622C116.965 56.6179 116.966 55.7736 116.967 54.9293C116.968 54.4968 116.968 54.4968 116.969 54.0555C116.973 49.6842 116.767 45.399 116.262 41.0583C115.813 37.1044 115.813 37.1044 116.491 35.9164C117.435 35.3973 118.301 35.4083 119.346 35.5426Z" fill="#050505"/>
<path d="M118.845 110.516C120.548 110.718 120.548 110.718 121.266 111.305C121.689 112.348 121.694 113.146 121.258 114.2C120.875 114.967 120.472 115.719 120.06 116.47C119.837 116.888 119.837 116.888 119.609 117.314C119.041 118.377 118.466 119.436 117.89 120.495C112.11 131.137 106.056 144.433 109.559 156.79C110.5 159.848 111.868 163.72 114.181 166.033C114.259 166.829 114.313 167.433 114.181 168.208C113.508 168.999 113.038 169.239 112.04 169.499C110.342 169.092 109.565 167.58 108.68 166.17C103.553 157.658 103.104 147.8 105.44 138.316C107.42 130.743 110.953 123.491 114.665 116.629C115.01 115.987 115.346 115.341 115.681 114.694C115.792 114.481 115.902 114.269 116.016 114.05C116.225 113.648 116.433 113.245 116.64 112.842C117.802 110.62 117.802 110.62 118.845 110.516Z" fill="#050505"/>
<path d="M74.7622 62.575C75.826 62.7744 76.1661 63.042 76.937 63.8152C77.4694 64.7507 77.8829 65.7276 78.2964 66.7205C78.4146 66.9985 78.533 67.2768 78.6548 67.5632C80.4981 71.9873 82.6115 77.7074 80.8452 82.4714C80.2832 83.6312 79.5923 84.7629 78.5679 85.5642C77.7608 85.8332 77.7605 85.8327 76.937 86.1072V108.399H80.1987C81.8532 109.392 81.8543 109.392 82.3745 110.574C82.4671 111.452 82.4666 111.452 82.4536 112.431C82.451 112.783 82.4485 113.135 82.4458 113.497C82.439 113.865 82.4323 114.233 82.4253 114.601C82.4212 114.975 82.4169 115.349 82.4136 115.722C82.404 116.634 82.3913 117.547 82.3745 118.459C82.6094 118.551 82.6101 118.551 82.8501 118.645C83.656 119.115 84.0359 119.579 84.5493 120.361C84.6862 121.29 84.6858 121.291 84.687 122.377C84.6887 122.577 84.6902 122.777 84.6919 122.983C84.6962 123.653 84.6934 124.324 84.69 124.994C84.6914 125.475 84.6934 125.955 84.6958 126.436C84.7008 127.742 84.6983 129.048 84.6948 130.354C84.6921 131.722 84.6951 133.09 84.6968 134.458C84.6988 136.756 84.6961 139.054 84.6909 141.352C84.685 144.006 84.6869 146.66 84.6929 149.313C84.6978 151.593 84.6987 153.874 84.6958 156.154C84.6941 157.515 84.6932 158.876 84.6968 160.237C84.6999 161.518 84.6982 162.799 84.6919 164.08C84.6905 164.549 84.6905 165.017 84.6929 165.486C84.7054 168.179 84.6271 170.376 83.0151 172.64C82.8708 172.781 82.7263 172.922 82.5776 173.067C82.4361 173.212 82.2947 173.357 82.1489 173.507C80.5975 174.584 79.0043 174.858 77.1665 174.85C76.9636 174.852 76.7604 174.853 76.5513 174.854C76.1255 174.856 75.6997 174.856 75.2739 174.853C74.6277 174.851 73.9816 174.859 73.3355 174.868C70.8507 174.88 69.1438 174.722 67.0942 173.199C66.9503 173.055 66.806 172.91 66.6577 172.761C66.5103 172.62 66.3624 172.479 66.2105 172.333C65.1361 170.821 64.8736 169.269 64.8667 167.45C64.8649 167.249 64.8628 167.047 64.8609 166.84C64.8557 166.171 64.8563 165.502 64.8569 164.834C64.8545 164.352 64.8512 163.869 64.8482 163.387C64.841 162.083 64.8399 160.778 64.8394 159.473C64.8388 158.658 64.8366 157.842 64.8345 157.026C64.8269 154.179 64.8231 151.331 64.8237 148.484C64.8242 145.832 64.8161 143.18 64.8032 140.528C64.7926 138.249 64.7881 135.97 64.7886 133.69C64.7888 132.33 64.7865 130.969 64.7778 129.609C64.7699 128.33 64.77 127.051 64.7759 125.772C64.7767 125.304 64.775 124.835 64.77 124.366C64.7309 120.385 64.7305 120.385 65.7691 119.116C66.6061 118.458 66.6064 118.459 67.1499 118.459C67.1371 118.115 67.1376 118.115 67.1245 117.764C67.0966 116.908 67.0755 116.051 67.0601 115.194C67.0519 114.825 67.0411 114.456 67.0269 114.087C66.8972 110.625 66.8978 110.625 67.9214 109.386C69.3327 108.017 70.4761 108.399 72.5874 108.399V86.1072C72.1389 85.9278 71.6901 85.749 71.228 85.5642C69.2957 83.8488 68.3697 81.8477 68.1724 79.2859C68.1657 78.9803 68.1597 78.674 68.1528 78.3591C68.1427 78.0594 68.1321 77.7597 68.1216 77.4509C68.2771 74.5519 69.721 71.586 70.7261 68.8777C70.8692 68.4899 71.0111 68.1016 71.1509 67.7126C71.3567 67.1401 71.5669 66.5691 71.7788 65.9988C71.9014 65.664 72.0246 65.3291 72.1509 64.9841C72.7502 63.7528 73.3738 62.8353 74.7622 62.575ZM69.311 145.879C69.3097 148.075 69.3082 150.272 69.3052 152.469C69.3025 154.398 69.3002 156.327 69.2993 158.257C69.299 159.275 69.2991 160.294 69.2974 161.313C69.2955 162.288 69.2934 163.263 69.2935 164.238C69.2935 164.604 69.2934 164.96 69.2935 165.315C69.292 165.832 69.292 165.832 69.2905 166.339C69.2909 166.655 69.2911 166.963 69.2915 167.27C69.2907 168.152 69.3158 168.726 69.5962 169.567C70.5087 170.49 70.509 170.49 73.6118 170.52C74.1788 170.518 74.7451 170.519 75.312 170.53C75.5957 170.536 75.5964 170.536 75.8745 170.542C76.2439 170.542 76.6029 170.543 76.9614 170.544C78.0587 170.55 78.6408 170.512 79.565 169.913C80.3527 169.07 80.3524 169.07 80.3677 166.525C80.3627 166.177 80.3579 165.838 80.353 165.5C80.3537 164.361 80.3532 163.222 80.3423 162.083C80.3324 161.063 80.3284 160.042 80.3267 159.022C80.3236 157.095 80.3148 155.168 80.3013 153.241C80.2857 151.03 80.2761 148.819 80.2691 146.608C80.2543 141.846 80.2294 137.085 80.1987 132.323H69.3247C69.3189 136.842 69.3139 141.36 69.311 145.879ZM69.3247 127.973H80.1987V123.624H69.3247V127.973ZM71.4995 118.186H78.0239V112.749H71.4995V118.186ZM74.7622 70.8835C73.4998 73.8582 72.2217 76.8351 72.5874 80.1267C73.0843 81.1205 73.5761 81.8945 74.6431 82.2849C75.3056 82.3019 75.3061 82.3012 76.1216 81.7576C76.6697 81.0186 76.922 80.5284 77.0259 79.6091C77.0187 79.3289 77.0114 79.0569 77.0044 78.7849C76.9776 77.054 76.6882 75.4782 76.1841 73.8289C76.1222 73.6307 76.0625 73.4382 76.0025 73.2458C75.8859 72.8555 75.7668 72.465 75.646 72.0759C75.3053 71.1558 75.3056 71.1553 74.7622 70.8835Z" fill="#010101"/>
<path d="M92.7373 44.8367C94.5165 39.4992 94.5169 39.4992 97.3252 39.8924C98.5223 40.8897 99.1086 41.9485 99.7207 43.3416C99.8476 43.6172 99.8481 43.617 99.9775 43.8982C100.588 45.2457 100.588 45.2458 100.588 45.8728C100.861 45.8658 101.135 45.8586 101.417 45.8514C102.472 45.8722 103.412 46.0011 104.444 46.2127C104.768 46.2758 105.092 46.3391 105.425 46.4041C106.369 46.7122 106.776 47.0014 107.384 47.7762C107.571 48.5236 107.571 48.5236 107.384 49.407C106.678 50.4074 105.818 51.2702 104.921 52.0994C103.892 53.1017 103.892 53.1022 103.51 54.4441C103.581 55.2236 103.708 55.9772 103.85 56.7469C103.919 57.3293 103.982 57.9129 104.037 58.4969C104.066 58.76 104.095 59.0236 104.125 59.2947C104.122 60.0694 103.996 60.4523 103.578 61.0965C102.873 61.6447 102.511 61.642 101.611 61.5779C100.19 61.2875 99.1473 60.5916 97.9189 59.8455C96.8906 59.3938 96.4849 59.4067 95.4219 59.7371C94.5101 60.1985 93.643 60.7139 92.7637 61.2342C91.8291 61.6686 91.2731 61.7564 90.2568 61.6404C89.4346 61.0848 89.2092 60.6889 88.9316 59.7371C88.8147 58.5329 89.0798 57.3718 89.3135 56.1941C89.4524 55.3226 89.5577 54.6354 89.4414 53.7566C88.9746 53.1338 88.5443 52.6313 87.9971 52.0916C85.6985 49.7367 85.6984 49.7363 85.4824 48.6082C85.6536 47.6762 85.931 47.262 86.6943 46.698C88.4183 45.8505 90.5386 45.7868 92.4316 45.8728C92.5325 45.5309 92.6334 45.189 92.7373 44.8367ZM96.2383 47.5037C96.1451 47.6622 96.0543 47.8167 95.9639 47.9705C95.758 48.38 95.538 48.7825 95.3057 49.1775C94.7854 49.7884 94.5103 49.8544 93.7236 49.9334C92.7046 49.9504 92.7041 49.9509 92.4326 50.2225C92.6127 50.4095 92.6125 50.4101 92.7891 50.5935C94.0035 51.9964 94.2262 52.9679 94.1211 54.8103C94.1016 55.0066 94.0824 55.197 94.0635 55.3875C94.7969 54.9525 94.7971 54.9524 95.6943 54.5721C96.7502 54.4401 97.263 54.5446 98.2432 54.9803C98.4857 55.1189 98.7216 55.2529 98.957 55.3875C98.9408 55.1847 98.9249 54.9876 98.9092 54.7908C98.8481 53.4827 98.721 52.4624 99.6367 51.4461L100.316 50.7664V49.951C99.6961 49.886 99.0965 49.7838 98.4863 49.6541C97.7521 49.3596 97.5524 49.1049 97.1729 48.4217C97.04 48.1097 96.9112 47.8065 96.7822 47.5037H96.2383Z" fill="#050505"/>
<path d="M49.1225 35.8831C54.687 34.6225 62.0098 35.416 66.6235 38.9574C66.9823 39.2665 67.3393 39.5779 67.6938 39.8919C67.9741 40.0937 68.2547 40.2953 68.5434 40.5033C70.9154 42.7721 72.5431 46.1522 72.6323 49.4486C72.7031 56.4808 70.8182 62.9655 67.6938 69.2523C67.5762 69.4921 67.4577 69.7318 67.3364 69.9788C66.9453 70.7702 66.5475 71.5584 66.147 72.3451C66.0296 72.5787 65.9124 72.8124 65.7915 73.0531C65.1302 74.3224 64.4927 75.453 63.5767 76.554C60.4602 80.4673 60.3993 84.3084 60.48 89.099C60.4943 90.1875 60.4877 91.276 60.4839 92.3646C60.48 94.2451 60.4888 96.1257 60.5063 98.0062C60.5317 100.728 60.5362 103.449 60.5356 106.17C60.5351 110.591 60.549 115.011 60.5737 119.431C60.5976 123.715 60.6176 127.999 60.6294 132.284C60.6301 132.548 60.6306 132.812 60.6313 133.084C60.6392 135.971 60.6454 138.859 60.6499 141.746C60.6505 142.127 60.6503 142.127 60.6509 142.515C60.6525 143.53 60.6544 144.544 60.6558 145.559C60.6599 148.524 60.6691 151.49 60.687 154.455C60.6981 156.313 60.7055 158.172 60.7104 160.03C60.7135 161.101 60.7183 162.172 60.728 163.243C60.737 164.225 60.7407 165.206 60.7407 166.188C60.742 166.709 60.7494 167.23 60.7563 167.751C60.7499 169.913 60.5189 171.79 58.9849 173.415C58.803 173.536 58.6205 173.656 58.4331 173.781C58.2506 173.907 58.0684 174.033 57.8804 174.163C56.7265 174.827 55.5956 174.791 54.3042 174.8C54.0034 174.809 54.0029 174.809 53.6958 174.818C51.9515 174.83 50.7792 174.392 49.2925 173.458C47.6725 171.838 47.4519 170.254 47.4477 168.051C47.4526 167.712 47.4574 167.374 47.4624 167.025C47.4637 166.657 47.4649 166.288 47.4653 165.92C47.4672 165.123 47.4719 164.325 47.48 163.528C47.4931 162.23 47.4987 160.931 47.5034 159.633C47.511 157.747 47.5226 155.862 47.5356 153.976C47.5559 150.989 47.564 148.001 47.5698 145.014C47.572 143.99 47.5735 142.966 47.5757 141.943C47.5762 141.687 47.5771 141.431 47.5776 141.167C47.584 138.256 47.5925 135.344 47.602 132.433C47.6029 132.167 47.6041 131.901 47.605 131.627C47.6194 127.328 47.6444 123.028 47.6733 118.729C47.7028 114.304 47.7171 109.88 47.7173 105.455C47.7179 102.733 47.7304 100.01 47.7602 97.2874C47.7796 95.4159 47.7841 93.5448 47.7768 91.6732C47.7731 90.5973 47.7753 89.5224 47.7964 88.4466C47.9012 82.8093 46.9777 79.0332 43.7427 74.3704C42.9053 73.1241 42.1908 71.8118 41.4761 70.4925C41.3371 70.2364 41.1983 69.9801 41.0552 69.7162C39.7903 67.368 38.7347 64.9489 37.7895 62.4564C37.7206 62.2754 37.6516 62.094 37.5806 61.9076C35.5968 56.6015 34.3845 49.9693 36.6684 44.5472C38.5976 40.6258 41.8448 38.2891 45.8833 36.8382C46.7124 36.5603 47.5492 36.3186 48.3921 36.0863C48.6331 36.0194 48.8742 35.9521 49.1225 35.8831ZM51.8989 119.718C51.8982 120.915 51.8977 122.112 51.897 123.309C51.8968 123.555 51.8961 123.793 51.896 124.032C51.8937 127.904 51.8902 131.777 51.8852 135.65C51.8801 139.636 51.8767 143.623 51.8755 147.609C51.8748 150.066 51.8731 152.523 51.8686 154.98C51.8656 156.679 51.8635 158.378 51.8638 160.077C51.8642 161.058 51.8651 162.039 51.8628 163.019C51.8601 163.929 51.8591 164.839 51.8599 165.748C51.8603 166.085 51.8604 166.413 51.8608 166.74C51.8592 167.058 51.8575 167.368 51.8559 167.677C51.8576 168.105 51.8573 168.105 51.8589 168.524C51.8583 169.259 51.8587 169.259 51.9263 169.839C52.4697 170.383 52.47 170.382 53.2173 170.454C53.5177 170.453 53.8095 170.452 54.1011 170.451C54.9844 170.455 54.9846 170.455 55.7319 170.383C56.2756 169.839 56.2757 169.839 56.3433 169.259C56.343 169.009 56.3425 168.766 56.3423 168.524C56.3434 168.236 56.3451 167.956 56.3462 167.677C56.3446 167.358 56.3429 167.049 56.3413 166.74C56.3428 165.69 56.3434 164.64 56.3403 163.59C56.3374 162.62 56.337 161.649 56.3374 160.679C56.3381 159 56.3373 157.32 56.3345 155.641C56.3301 153.189 56.3274 150.737 56.3267 148.285C56.3255 144.315 56.3229 140.343 56.3179 136.372C56.3129 132.5 56.3085 128.628 56.3061 124.755C56.306 124.509 56.3063 124.27 56.3061 124.032C56.3054 122.832 56.3039 121.632 56.3032 120.432C56.2975 110.259 56.2883 100.086 56.2759 89.9134H51.9263C51.9142 99.8482 51.9046 109.783 51.8989 119.718ZM51.9253 81.2142V85.5638H56.2749V81.2142H51.9253ZM63.6499 42.1517C57.8565 38.7244 50.2682 39.0253 44.4673 42.2874C42.0491 43.7168 40.9102 45.0598 40.1509 47.7933C38.531 57.071 38.5317 57.0711 48.2183 73.6615C48.3697 73.9183 48.5166 74.168 48.6636 74.4173C49.1527 75.2828 49.61 76.1381 50.2944 76.8646C51.2119 77.0175 51.2126 77.0175 51.9263 76.8646C51.9363 76.27 51.9501 75.6757 51.9692 75.0814C51.9816 74.712 51.9816 74.712 51.9936 74.3499C52.0082 73.4537 52.0256 72.581 52.1977 71.6996C52.6514 70.9839 52.6518 70.9835 53.2856 70.6117C54.2289 70.4545 54.6969 70.4659 55.4985 70.9984C56.1506 72.2202 56.1502 72.2206 56.1958 73.6312C56.1998 73.8755 56.2037 74.1128 56.2075 74.3499C56.2304 75.0358 56.2534 75.7214 56.2681 76.4076C56.2707 76.5629 56.2733 76.7138 56.2759 76.8646C56.5876 76.8761 56.8903 76.8876 57.1929 76.8988C58.1783 76.8648 58.1785 76.8643 58.7222 76.3206C64.0004 68.5936 68.8705 58.7258 68.2368 49.1351C67.6456 46.107 66.1552 43.9157 63.6499 42.1517Z" fill="#020202"/>
<path d="M103.578 108.671C103.668 108.671 103.758 108.671 103.85 108.671C103.85 109.927 103.85 111.183 103.85 112.477C103.581 112.388 103.312 112.298 103.035 112.206C103.02 111.719 103.009 111.231 103.001 110.744C102.994 110.473 102.988 110.202 102.981 109.922C103.035 109.215 103.035 109.215 103.578 108.671Z" fill="#020202"/>
</svg>
