<svg width="211" height="211" viewBox="0 0 211 211" fill="none" xmlns="http://www.w3.org/2000/svg">
<path d="M161.841 48.6354C158.229 46.5656 153.638 47.8075 151.568 51.3826C149.498 54.9953 150.74 59.5864 154.315 61.6562C157.89 63.726 162.519 62.4841 164.589 58.909C166.658 55.334 165.416 50.7052 161.841 48.6354Z" fill="black"/>
<path d="M94.4176 61.3557C98.4293 60.2671 100.799 56.1324 99.7102 52.1207C98.6215 48.1091 94.4869 45.7395 90.4752 46.8281C86.4635 47.9168 84.094 52.0514 85.1826 56.0631C86.2713 60.0748 90.4059 62.4444 94.4176 61.3557Z" fill="black"/>
<path d="M173.921 51.3449C173.733 51.1567 173.658 50.7804 173.733 50.4417C174.26 48.2214 173.808 45.9635 172.416 44.1571C171.024 42.3508 168.954 41.297 166.696 41.2594C166.32 41.2594 166.018 41.1089 165.868 40.8455C164.701 38.8509 162.707 37.5338 160.449 37.2328C158.153 36.9317 155.895 37.6843 154.277 39.3025C154.089 39.4907 153.713 39.566 153.374 39.4907C151.154 38.9638 148.896 39.4154 147.089 40.8078C145.283 42.2002 144.229 44.27 144.192 46.5279C144.192 46.9043 144.041 47.2053 143.778 47.3559C141.783 48.5225 140.466 50.517 140.165 52.7749C139.864 55.0705 140.617 57.3284 142.235 58.9466C142.423 59.1348 142.498 59.5111 142.423 59.8498C141.896 62.0701 142.348 64.328 143.74 66.1344C144.794 67.5268 146.299 68.4676 147.993 68.8439L137.531 86.9451L130.381 81.6389C129.101 80.6605 127.483 80.1336 125.865 80.1336H123.908L124.397 76.107C124.435 75.8812 124.472 75.6177 124.472 75.392L126.392 59.6616C132.375 59.4735 137.531 54.9576 138.283 48.8235C138.283 48.8235 138.283 48.8235 138.283 48.7859L139.902 35.464C140.127 33.7329 139.375 32.0395 137.945 31.061C136.515 30.045 134.671 29.9321 133.128 30.6847L126.203 34.1469L123.381 30.9481C122.139 29.5557 120.258 28.9913 118.451 29.5557C116.645 30.1202 115.403 31.6255 115.177 33.4695L113.672 45.7377C112.919 51.8717 116.833 57.5166 122.591 59.1348L121.424 68.6558C120.747 68.3923 119.994 68.2418 119.204 68.3171C115.779 68.6181 112.769 70.274 110.661 72.9835C109.043 75.0533 108.14 77.537 108.065 80.096H97.4147L96.2481 70.6503C97.9416 70.9513 99.7103 70.6879 101.216 69.8224C103.172 68.6934 104.527 66.7742 104.904 64.5538C104.979 64.1775 105.205 63.9141 105.543 63.7636C107.613 62.8604 109.156 61.0917 109.758 58.909C110.36 56.7263 109.946 54.4307 108.629 52.5868C108.403 52.2857 108.366 51.9094 108.516 51.5707C109.344 49.4633 109.194 47.1301 108.102 45.1732C106.973 43.2163 105.054 41.8615 102.834 41.4852C102.457 41.4099 102.194 41.1841 102.043 40.8455C101.14 38.7757 99.3716 37.2328 97.1889 36.6306C95.0062 36.0285 92.7107 36.4425 90.8667 37.7596C90.5656 37.9854 90.1893 38.023 89.8506 37.8725C87.7432 37.0446 85.41 37.1951 83.4531 38.2865C81.4962 39.4154 80.1415 41.3347 79.7651 43.555C79.6899 43.9313 79.4641 44.1947 79.1254 44.3453C77.0556 45.2484 75.5127 47.0172 74.9106 49.1998C74.3085 51.3825 74.7224 53.6781 76.0395 55.5221C76.2653 55.8231 76.303 56.1995 76.1524 56.5381C75.3245 58.6456 75.4751 60.9788 76.5664 62.9356C77.6954 64.8925 79.6146 66.2473 81.8349 66.6236C82.2113 66.6989 82.4747 66.9247 82.6252 67.2634C83.5284 69.3331 85.2971 70.8761 87.4798 71.4782C88.1195 71.6664 88.7969 71.7416 89.4743 71.7416C90.528 71.7416 91.5441 71.5158 92.5225 71.0642L93.6515 80.1336C92.372 80.2842 91.1301 80.811 90.114 81.5637L79.8404 89.2783L64.4111 68.8063C68.5883 64.5162 69.1528 57.6671 65.4272 52.7373L57.976 42.8776C56.847 41.3723 55.0031 40.6949 53.1591 41.1089C51.3151 41.5228 49.9603 42.9152 49.584 44.7592L48.7561 48.8988L41.0038 49.388C39.2727 49.5009 37.7674 50.5546 37.0148 52.1352C36.2998 53.7157 36.4879 55.5597 37.5416 56.9145L45.595 67.6397C47.5895 70.274 50.4872 71.9674 53.7612 72.419C54.3633 72.4943 54.9278 72.5319 55.4923 72.5319C57.5244 72.5319 59.5189 72.005 61.3253 71.0642L65.352 76.408C65.1262 76.5209 64.8627 76.6715 64.6369 76.822C61.8521 78.8165 60.0458 81.7518 59.5566 85.1387C59.0674 88.5257 60.0082 91.8373 62.1156 94.5092C63.0564 95.6758 64.4111 96.2779 65.8035 96.2779C66.7444 96.2779 67.6852 96.0145 68.5131 95.4124C71.2226 93.4931 73.029 90.6331 73.5558 87.3214L76.7169 91.4986L68.5131 97.6703C67.497 98.423 66.8196 99.6272 66.6691 100.869C66.5562 101.923 66.782 103.014 67.3465 103.88L72.3139 111.858C70.9968 111.895 69.7549 112.497 68.8518 113.626C67.5346 115.245 67.4217 117.427 68.5883 119.196L75.4374 129.47C75.8137 129.997 76.3782 130.298 77.018 130.298C77.3943 130.298 77.733 130.185 78.0717 129.997C78.9372 129.432 79.163 128.265 78.5985 127.4L71.7495 117.126C71.4108 116.599 71.6742 116.185 71.7871 115.997C71.9 115.847 72.2763 115.47 72.8784 115.696L104.979 128.303L95.8718 131.878L86.1626 124.465C85.3347 123.825 84.1681 124.013 83.5284 124.803C82.8886 125.631 83.0768 126.798 83.8671 127.438L91.7699 133.459L84.7326 136.243L75.6256 133.572C74.1956 133.158 72.6903 133.421 71.486 134.324C70.2818 135.227 69.6044 136.582 69.6044 138.087V146.254C58.6534 146.856 49.9227 155.963 49.9227 167.064C49.9227 168.118 50.7506 168.946 51.8043 168.946C52.858 168.946 53.6859 168.118 53.6859 167.064C53.6859 158.033 60.7232 150.619 69.6044 150.017V158.108C69.6044 159.613 70.2818 160.968 71.486 161.871C72.3139 162.511 73.2924 162.812 74.3085 162.812C74.76 162.812 75.2116 162.737 75.6256 162.624L91.6946 157.957L79.6146 178.542C78.7491 180.01 78.7491 181.779 79.577 183.246C80.4425 184.714 81.9478 185.617 83.6413 185.617H136.59C138.283 185.617 139.826 184.752 140.654 183.246C141.52 181.779 141.482 180.01 140.617 178.542L131.886 163.677C131.359 162.774 130.192 162.473 129.327 163C128.424 163.527 128.123 164.694 128.65 165.559L137.38 180.424C137.644 180.838 137.456 181.214 137.38 181.365C137.305 181.515 137.042 181.854 136.552 181.854H83.8294C83.3402 181.854 83.0768 181.515 83.0015 181.365C82.9263 181.214 82.7757 180.838 83.0015 180.424L97.076 156.377L100.576 155.361C101.216 156.189 101.931 156.941 102.759 157.581L97.5653 175.419C97.2642 176.435 97.8287 177.451 98.8447 177.752C99.0329 177.79 99.1834 177.827 99.3716 177.827C100.2 177.827 100.952 177.3 101.178 176.472L106.145 159.5C107.463 159.989 108.855 160.253 110.323 160.253C111.79 160.253 113.183 159.989 114.5 159.5L119.467 176.472C119.693 177.3 120.446 177.827 121.274 177.827C121.462 177.827 121.612 177.79 121.8 177.752C122.817 177.451 123.381 176.435 123.08 175.419L117.887 157.581C118.715 156.941 119.43 156.189 120.069 155.361L144.869 162.586C145.321 162.699 145.772 162.774 146.186 162.774C147.202 162.774 148.181 162.436 149.009 161.833C150.213 160.93 150.89 159.576 150.89 158.07V149.979C159.772 150.581 166.809 157.995 166.809 167.027C166.809 168.08 167.637 168.908 168.69 168.908C169.744 168.908 170.572 168.08 170.572 167.027C170.572 155.925 161.841 146.818 150.89 146.216V138.05C150.89 136.545 150.213 135.19 149.009 134.287C147.804 133.383 146.299 133.12 144.869 133.534L141.633 134.475L151.869 119.083C153.035 117.352 152.922 115.169 151.605 113.514C150.627 112.272 149.159 111.67 147.692 111.745L152.96 103.842C153.562 102.976 153.826 101.923 153.75 100.869C153.637 99.5143 152.96 98.2724 151.869 97.4822L140.579 89.0149L143.364 84.1979C144.267 87.2838 146.299 89.8052 149.159 91.3481C149.874 91.7244 150.627 91.9126 151.417 91.9126C152.998 91.9126 154.541 91.1223 155.406 89.6546C157.137 86.7946 157.626 83.4829 156.761 80.2465C155.895 77.0478 153.826 74.3759 150.89 72.7953C150.627 72.6448 150.401 72.5695 150.138 72.4566L151.267 70.4997C152.433 71.7793 154.014 72.6072 155.745 72.833C156.084 72.8706 156.385 72.9082 156.723 72.9082C158.68 72.9082 160.524 72.1556 161.917 70.7632C162.105 70.575 162.481 70.4998 162.82 70.575C165.002 71.1019 167.298 70.6503 169.104 69.2579C170.911 67.8655 171.964 65.7957 172.002 63.5378C172.002 63.1614 172.153 62.8604 172.416 62.7099C174.411 61.5433 175.728 59.5487 176.029 57.2908C176.33 55.221 175.539 52.9631 173.921 51.3449ZM46.2347 62.0701L40.7028 54.6942C40.4017 54.2802 40.5146 53.9039 40.5899 53.7534C40.6651 53.6028 40.8909 53.2265 41.3801 53.1889L48.1163 52.7373L46.2347 62.0701ZM60.8361 67.1128C58.9921 68.5052 56.7341 69.0697 54.4762 68.7687C52.4817 68.4676 50.6753 67.5268 49.3206 66.0591L52.3312 51.1567C52.3312 51.1191 52.3312 51.1191 52.3312 51.0815L53.4225 45.5871C53.5354 45.0603 53.9494 44.9098 54.1375 44.8721C54.3257 44.8345 54.7773 44.7969 55.116 45.2108L62.5672 55.0705C65.3896 58.8714 64.5993 64.2528 60.8361 67.1128ZM70.056 86.644C69.7173 88.9772 68.4754 91.047 66.5562 92.4018C66.1422 92.7028 65.5777 92.59 65.2767 92.2136C63.809 90.3696 63.1693 88.0364 63.508 85.7032C63.8467 83.37 65.0885 81.3002 67.0078 79.9455C67.1583 79.8326 67.3465 79.7573 67.5346 79.7573C67.7981 79.7573 68.0991 79.8702 68.2873 80.1336C69.7549 82.0153 70.3947 84.3108 70.056 86.644ZM134.897 34.0716C135.348 33.8458 135.724 34.034 135.875 34.1469C136.026 34.2598 136.327 34.5232 136.251 35.0124L135.122 44.1571L128.875 37.0446L134.897 34.0716ZM117.51 46.2269L119.016 33.9587C119.091 33.4319 119.505 33.2437 119.655 33.1685C119.731 33.1308 119.844 33.1308 119.956 33.1308C120.145 33.1308 120.408 33.2061 120.634 33.4695L124.359 37.722L124.397 37.7596L134.407 49.1246C133.467 53.4147 129.402 56.35 124.962 55.8231C120.295 55.2586 116.946 50.9309 117.51 46.2269ZM123.456 83.8969H125.902C126.693 83.8969 127.521 84.1603 128.16 84.6495L135.649 90.2567L124.171 110.127L120.032 111.745L123.456 83.8969ZM113.747 75.3543C115.215 73.4727 117.322 72.3437 119.655 72.1179C119.693 72.1179 119.731 72.1179 119.731 72.1179C120.182 72.1179 120.596 72.4566 120.672 72.9082C120.784 73.6232 120.784 74.3382 120.747 75.0156L120.672 75.5049C120.446 76.9349 119.881 78.252 118.978 79.4186C117.51 81.3002 115.403 82.4292 113.07 82.655C112.581 82.6926 112.129 82.354 112.054 81.8647C111.677 79.5315 112.28 77.1983 113.747 75.3543ZM108.817 83.8969C109.608 85.4398 111.226 86.4182 112.995 86.4182C113.145 86.4182 113.296 86.4182 113.446 86.3806C115.742 86.1548 117.887 85.3269 119.693 83.9721L116.08 113.288L111.866 114.944C110.962 115.282 109.984 115.282 109.118 114.944L101.479 111.933L100.124 101.02C101.855 102.299 103.925 103.127 106.145 103.315C106.296 103.315 106.446 103.353 106.597 103.353C108.893 103.353 110.887 101.659 111.226 99.3638C111.715 96.0521 110.849 92.8157 108.817 90.1815C106.785 87.5472 103.812 85.929 100.501 85.5903C99.7103 85.5151 98.9576 85.628 98.2803 85.8914L98.0168 83.8592H108.817V83.8969ZM99.0705 90.1438C99.1458 89.6923 99.5221 89.3536 99.9737 89.3536C100.011 89.3536 100.049 89.3536 100.049 89.3536C102.345 89.5794 104.377 90.7083 105.769 92.5147C107.161 94.321 107.764 96.579 107.425 98.8369C107.35 99.3261 106.898 99.6648 106.409 99.6272C104.113 99.4014 102.081 98.2724 100.689 96.4661C99.334 94.6597 98.7319 92.4394 99.0705 90.1438ZM91.7322 67.3386C90.8291 67.9784 89.7001 68.2042 88.6087 67.9031C87.5174 67.6021 86.6519 66.8494 86.2379 65.8333C85.5982 64.2904 84.2058 63.2367 82.5876 62.9733C81.4962 62.7851 80.5178 62.1454 79.9909 61.1669C79.4265 60.1885 79.3512 59.0595 79.7651 58.0058C80.3673 56.4629 80.1791 54.7318 79.2007 53.377C78.5609 52.4739 78.3351 51.3449 78.6362 50.2535C78.9372 49.1622 79.6899 48.2967 80.706 47.8827C82.2489 47.243 83.3026 45.8506 83.566 44.2324C83.7542 43.141 84.3939 42.1626 85.3724 41.6357C85.9369 41.3347 86.539 41.1465 87.1787 41.1465C87.6303 41.1465 88.1195 41.2218 88.5335 41.4099C90.0764 42.0121 91.8075 41.8239 93.1246 40.8455C94.0278 40.2057 95.1568 39.9799 96.2481 40.281C97.3395 40.582 98.205 41.3347 98.619 42.3507C99.2587 43.8937 100.651 44.9474 102.269 45.2108C103.361 45.399 104.339 46.0387 104.866 47.0172C105.43 47.9956 105.506 49.1246 105.092 50.1783C104.49 51.7212 104.678 53.4523 105.656 54.7694C106.296 55.6726 106.522 56.8016 106.221 57.8929C105.92 58.9843 105.167 59.8498 104.151 60.2638C102.608 60.9035 101.554 62.2959 101.291 63.9141C101.103 65.0054 100.463 65.9839 99.4845 66.5107C98.5061 67.0752 97.3771 67.1505 96.3234 66.7365C94.7805 66.172 93.087 66.3602 91.7322 67.3386ZM92.4472 84.6495C92.9741 84.2732 93.5762 84.0098 94.216 83.9345L97.4524 110.428L95.0815 109.487C95.0439 109.449 95.0439 109.412 95.0062 109.374L82.1736 92.3265L92.4472 84.6495ZM79.2007 94.6221L88.4582 106.89L71.5989 100.305L79.2007 94.6221ZM81.3457 150.167C80.292 150.167 79.4641 149.34 79.4641 148.286C79.4641 147.232 80.292 146.404 81.3457 146.404H98.2803C98.1674 147.006 98.1297 147.646 98.1297 148.286C98.1297 148.926 98.1674 149.565 98.2803 150.167H81.3457ZM110.285 156.715C105.656 156.715 101.893 152.952 101.893 148.323C101.893 143.695 105.656 139.931 110.285 139.931C114.914 139.931 118.677 143.695 118.677 148.323C118.677 152.952 114.951 156.715 110.285 156.715ZM139.262 150.167H122.327C122.44 149.565 122.478 148.926 122.478 148.286C122.478 147.646 122.44 147.006 122.327 146.404H139.262C140.316 146.404 141.144 147.232 141.144 148.286C141.144 149.34 140.278 150.167 139.262 150.167ZM148.632 116.11C148.745 116.261 149.046 116.712 148.67 117.239L135.95 136.356L120.032 141.023C119.543 140.345 118.978 139.743 118.338 139.216L133.918 128.566C134.784 127.964 135.009 126.798 134.407 125.97C133.805 125.104 132.639 124.879 131.811 125.481L114.838 137.071C113.446 136.507 111.903 136.168 110.285 136.168C106.334 136.168 102.796 138.087 100.576 141.023L90.7914 138.163L147.541 115.847C148.143 115.621 148.519 115.96 148.632 116.11ZM141.746 114.078L110.285 126.421L77.9964 113.739L72.3516 104.632L107.726 118.481C108.592 118.82 109.532 119.008 110.473 119.008C111.414 119.008 112.355 118.82 113.22 118.481L147.88 104.82L141.746 114.078ZM149.046 100.342L129.779 107.906L138.66 92.5147L149.046 100.342ZM153.073 81.4884C153.675 83.7087 153.336 86.0043 152.132 87.9612C151.869 88.3751 151.342 88.5257 150.89 88.2999C148.858 87.2085 147.428 85.3645 146.864 83.1819C146.262 80.9616 146.6 78.666 147.804 76.7091C148.068 76.2951 148.595 76.1446 149.046 76.3704C151.041 77.4617 152.508 79.3057 153.073 81.4884ZM172.265 57.0274C172.115 58.1563 171.475 59.1348 170.497 59.6993C169.104 60.5272 168.276 61.9948 168.239 63.6883C168.201 64.8173 167.712 65.8333 166.809 66.5107C165.943 67.1881 164.777 67.4139 163.723 67.1505C162.067 66.7365 160.411 67.1881 159.282 68.3171C158.454 69.1074 157.363 69.4837 156.234 69.3331C155.105 69.1826 154.127 68.5429 153.562 67.5644C152.734 66.172 151.267 65.3441 149.573 65.3065C148.444 65.2689 147.428 64.7796 146.751 63.8765C146.073 62.9733 145.848 61.8443 146.111 60.7906C146.525 59.1348 146.073 57.479 144.944 56.35C144.154 55.5221 143.778 54.4307 143.928 53.3018C144.079 52.1728 144.719 51.1944 145.697 50.6299C147.089 49.802 147.917 48.3343 147.955 46.6408C147.993 45.5119 148.482 44.4958 149.385 43.8184C150.025 43.3292 150.815 43.0658 151.605 43.0658C151.906 43.0658 152.207 43.1034 152.471 43.1787C154.127 43.5926 155.782 43.141 156.911 42.0121C157.739 41.2218 158.831 40.8455 159.96 40.996C161.089 41.1465 162.067 41.7863 162.632 42.7647C163.459 44.1571 164.927 44.985 166.621 45.0226C167.75 45.0603 168.766 45.5495 169.443 46.4527C170.12 47.3559 170.346 48.4848 170.083 49.5385C169.669 51.1944 170.12 52.8502 171.249 53.9791C172.04 54.8071 172.416 55.8984 172.265 57.0274Z" fill="black"/>
</svg>
